<?xml version="1.0" standalone="no"?>
<!DOCTYPE svg PUBLIC "-//W3C//DTD SVG 20010904//EN"
 "http://www.w3.org/TR/2001/REC-SVG-20010904/DTD/svg10.dtd">
<svg version="1.0" xmlns="http://www.w3.org/2000/svg"
 width="1134.000000pt" height="728.000000pt" viewBox="0 0 1134.000000 728.000000"
 preserveAspectRatio="xMidYMid meet">

<g transform="translate(0.000000,728.000000) scale(0.100000,-0.100000)"
fill="#000000" stroke="none">
<path d="M5895 5230 c-116 -19 -312 -91 -299 -111 3 -5 -1 -6 -9 -3 -8 3 -52
-32 -109 -88 -222 -215 -280 -338 -294 -618 -7 -133 4 -204 47 -321 19 -53 48
-76 50 -40 0 10 4 7 10 -7 6 -15 5 -30 -1 -43 -8 -13 -7 -19 0 -19 6 0 8 -4 5
-10 -3 -5 -1 -10 5 -10 6 0 10 8 8 18 -1 9 1 22 5 29 4 6 2 23 -5 38 -9 21 -9
28 1 34 9 6 10 11 2 15 -6 4 -16 4 -23 0 -6 -4 -8 -3 -4 4 3 6 2 13 -4 17 -15
9 -2 25 19 25 10 0 23 10 29 23 10 20 11 21 11 2 2 -35 21 6 21 45 0 19 5 42
11 50 9 13 10 12 5 -2 -3 -10 -1 -18 5 -18 6 0 7 -5 3 -11 -3 -6 -7 -31 -8
-56 -1 -32 1 -40 6 -27 5 11 20 24 33 30 19 10 25 9 30 -4 5 -13 8 -14 14 -3
15 23 21 -14 7 -41 -8 -15 -10 -31 -5 -40 12 -21 -17 -58 -47 -58 -17 0 -24
-6 -24 -19 0 -10 -7 -24 -15 -31 -8 -7 -15 -25 -15 -41 0 -16 -4 -29 -10 -29
-5 0 -10 9 -10 20 0 17 -2 19 -14 8 -11 -11 -9 -19 15 -54 41 -60 163 -170
239 -214 78 -47 217 -95 320 -111 410 -64 801 186 930 596 28 90 37 256 20
362 -63 394 -403 699 -799 717 -53 3 -123 1 -156 -4z m-128 -82 c-3 -7 -5 -2
-5 12 0 14 2 19 5 13 2 -7 2 -19 0 -25z m323 -9 c0 -14 -7 -19 -25 -19 -18 0
-25 5 -25 18 0 25 7 31 31 25 10 -3 19 -14 19 -24z m-170 1 c0 -11 -4 -20 -10
-20 -5 0 -10 9 -10 20 0 11 5 20 10 20 6 0 10 -9 10 -20z m80 0 c0 -11 -4 -20
-10 -20 -5 0 -10 9 -10 20 0 11 5 20 10 20 6 0 10 -9 10 -20z m-186 -89 c10
-8 12 0 8 44 -3 39 -1 55 8 55 7 0 11 -13 9 -32 -4 -60 1 -108 11 -108 5 0 7
6 4 13 -2 7 2 29 10 48 14 32 15 32 17 9 4 -50 -9 -198 -27 -315 -6 -33 -4
-38 7 -27 7 6 16 12 19 12 9 0 1 -310 -9 -328 -5 -10 -9 -57 -10 -107 -2 -82
-1 -88 13 -70 9 11 16 28 16 39 0 12 5 16 16 12 9 -3 16 -6 17 -6 1 0 1 -24
-1 -52 -2 -43 0 -49 8 -35 7 10 9 24 7 31 -3 8 0 19 6 25 8 8 8 11 0 11 -6 0
-10 8 -8 18 2 9 4 20 4 25 1 11 31 8 31 -4 0 -6 5 -9 12 -7 18 6 58 -41 58
-68 0 -13 5 -24 10 -24 6 0 10 7 10 17 0 15 2 14 20 -2 11 -10 22 -26 25 -36
4 -11 15 -19 26 -19 23 0 23 -3 3 -41 -8 -17 -13 -37 -10 -45 3 -7 1 -16 -4
-19 -6 -4 -10 -12 -10 -18 0 -7 5 -4 11 6 5 9 19 17 29 17 11 0 20 5 20 12 0
9 3 9 11 1 9 -9 9 -20 0 -44 -6 -17 -11 -48 -11 -67 0 -27 3 -33 16 -28 8 3
13 2 9 -3 -3 -5 2 -16 10 -24 18 -18 19 -34 4 -39 -8 -3 -8 -10 2 -26 12 -20
12 -24 -1 -32 -12 -8 -16 -3 -18 24 -3 37 -32 60 -32 26 0 -11 5 -20 10 -20 6
0 10 -7 10 -16 0 -10 -6 -14 -14 -11 -8 3 -16 1 -18 -5 -3 -8 -11 -7 -27 1
-18 10 -21 18 -16 40 4 21 2 30 -11 35 -10 4 -14 13 -11 26 3 11 1 18 -4 14
-10 -6 -13 21 -10 79 1 20 -3 37 -8 37 -5 0 -9 -10 -9 -22 1 -45 -14 -154 -24
-181 -13 -34 -6 -44 16 -22 14 15 15 14 12 -13 -2 -16 -6 -34 -10 -41 -6 -10
5 -15 26 -13 12 2 17 -27 6 -35 -24 -14 -58 -9 -58 9 0 9 -4 19 -8 22 -5 3 -6
-8 -4 -25 2 -16 -1 -36 -8 -44 -14 -17 -56 -20 -65 -5 -4 6 -10 8 -15 5 -4 -3
-13 9 -19 27 -14 39 -14 38 5 38 13 0 15 5 9 23 -4 12 -10 51 -12 86 -3 43 -8
60 -14 50 -5 -8 -9 -27 -9 -42 0 -18 -4 -26 -11 -21 -6 3 -9 21 -7 38 3 17 2
42 -3 56 -7 24 -7 24 -8 -5 -2 -36 -15 -60 -29 -51 -10 6 -18 -28 -28 -126 -6
-55 -16 -73 -27 -45 -3 6 -6 -1 -6 -18 -1 -23 2 -26 9 -15 8 12 10 11 10 -5 0
-30 -37 -60 -56 -44 -11 9 -14 9 -14 0 0 -7 -5 -9 -10 -6 -6 4 -8 11 -5 16 3
5 -1 6 -9 3 -13 -5 -14 7 -9 85 4 68 2 91 -7 91 -7 0 -10 8 -7 20 3 11 1 18
-3 15 -5 -3 -11 -19 -15 -35 -4 -17 -10 -30 -15 -30 -20 0 -20 22 -1 64 l19
45 -21 3 c-12 2 -22 10 -22 18 0 9 7 14 18 12 10 -2 17 3 17 14 0 11 6 15 18
12 14 -4 17 2 17 29 0 18 -3 33 -6 33 -8 0 1 142 9 155 7 9 7 27 2 95 l-1 25
-11 -25 c-15 -35 -22 -3 -9 42 7 25 9 27 10 11 1 -25 13 -30 28 -10 6 6 15 59
22 117 7 58 15 120 18 139 5 29 3 33 -11 28 -9 -4 -16 -2 -16 2 0 5 7 11 15
15 11 4 15 21 13 68 -1 39 -3 50 -5 28 -7 -56 -23 -60 -23 -7 0 33 5 49 15 53
8 4 15 11 15 16 0 6 -7 8 -15 4 -11 -4 -15 2 -15 20 0 20 4 25 16 20 14 -5 15
1 12 39 -2 25 1 45 6 45 11 0 -3 54 -15 58 -14 5 -11 62 3 60 16 -4 27 52 15
76 -11 22 12 43 25 23 5 -8 10 -4 16 13 6 21 8 17 10 -22 2 -25 9 -51 16 -57z
m346 85 c0 -8 -4 -18 -10 -21 -5 -3 -10 3 -10 14 0 12 5 21 10 21 6 0 10 -6
10 -14z m-525 -6 c-3 -5 -12 -10 -18 -10 -7 0 -6 4 3 10 19 12 23 12 15 0z
m250 1 c3 -5 1 -12 -5 -16 -5 -3 -10 1 -10 9 0 18 6 21 15 7z m345 -16 c0 -8
-4 -15 -10 -15 -5 0 -7 7 -4 15 4 8 8 15 10 15 2 0 4 -7 4 -15z m-525 -36 c7
-21 -7 -39 -31 -39 -20 0 -24 39 -6 50 25 14 30 12 37 -11z m328 -50 l-1 -64
7 50 c5 28 9 46 9 40 1 -5 9 1 18 13 26 37 84 26 84 -17 0 -18 3 -22 9 -13 6
10 11 5 20 -17 18 -42 20 -128 5 -149 -15 -20 -18 -52 -5 -52 5 0 11 6 14 13
7 19 15 5 17 -28 3 -48 1 -67 -9 -61 -4 3 -6 -6 -3 -19 2 -14 9 -22 15 -18 7
4 8 -8 3 -38 -14 -82 -15 -99 -7 -99 15 0 33 115 38 250 3 98 8 139 19 150 12
12 14 4 14 -68 0 -48 4 -82 10 -82 6 0 10 19 11 43 l1 42 12 -45 c13 -45 6
-72 -17 -67 -15 3 -37 -247 -33 -382 3 -91 6 -106 22 -112 11 -4 42 -16 70
-27 35 -14 51 -17 51 -9 -1 41 4 58 16 51 10 -6 10 -4 0 7 -7 7 -13 22 -13 34
0 18 1 18 13 -4 14 -28 37 -39 37 -18 0 8 9 17 20 20 14 3 20 14 21 34 l1 28
9 -33 c9 -31 29 -36 29 -7 0 12 28 35 44 35 6 0 -2 -61 -9 -68 -3 -3 -5 4 -5
16 0 11 -5 24 -11 27 -6 4 -10 1 -8 -6 1 -8 1 -25 0 -38 -1 -19 -4 -21 -15
-12 -11 9 -15 7 -20 -11 -3 -13 -6 -37 -6 -53 0 -17 -9 -48 -19 -68 -13 -26
-15 -34 -5 -26 12 9 14 6 14 -20 0 -29 -19 -46 -21 -18 0 6 -6 -6 -14 -28 -9
-28 -13 -33 -14 -17 -1 23 -15 30 -26 12 -4 -6 -9 -75 -12 -153 -2 -78 -7
-144 -9 -146 -2 -2 -4 14 -4 37 0 63 -15 50 -18 -15 -2 -32 -5 -60 -7 -62 -9
-8 -25 53 -25 94 0 24 -4 47 -10 50 -15 9 -9 245 7 245 7 0 13 7 13 15 0 8 7
15 15 15 8 0 15 -7 15 -15 0 -21 18 -19 23 3 3 11 5 7 6 -10 0 -15 6 -30 11
-33 9 -6 15 8 11 29 -1 5 3 12 8 15 6 4 -20 20 -57 35 -37 16 -107 46 -156 68
-49 21 -90 37 -92 35 -2 -1 28 -30 66 -65 38 -34 71 -57 73 -52 3 6 4 5 3 -2
-2 -7 4 -21 12 -31 13 -15 14 -22 4 -38 -7 -10 -10 -30 -6 -43 3 -14 1 -33 -4
-43 -10 -17 -11 -17 -17 0 -4 9 -5 28 -3 41 4 21 -15 44 -123 145 -70 67 -133
121 -139 121 -21 0 -49 44 -38 58 8 9 4 12 -16 12 -29 0 -49 -34 -36 -60 4 -8
4 -23 1 -33 -6 -15 -9 -16 -17 -5 -10 14 -10 108 1 198 4 30 6 62 5 70 -3 40
-1 65 6 108 6 41 8 44 14 22 4 -14 5 -28 3 -33 -10 -18 -8 -157 2 -193 11 -36
12 -29 13 69 1 87 5 117 21 151 11 23 23 61 25 85 2 24 9 48 15 54 6 6 11 22
11 35 0 16 4 21 13 16 9 -6 9 -5 0 7 -7 8 -10 25 -6 37 4 16 1 22 -11 22 -12
0 -16 10 -16 45 0 30 -4 44 -12 43 -6 -2 -14 5 -16 16 -2 10 0 16 6 12 5 -3
15 1 22 9 24 29 35 10 33 -56z m277 62 c0 -6 -4 -13 -10 -16 -5 -3 -10 1 -10
9 0 9 5 16 10 16 6 0 10 -4 10 -9z m62 -43 c-7 -7 -12 -8 -12 -2 0 14 12 26
19 19 2 -3 -1 -11 -7 -17z m-748 -14 c9 -22 -3 -32 -14 -14 -12 19 -12 30 -1
30 5 0 12 -7 15 -16z m312 -18 c-3 -43 -26 -46 -26 -3 0 22 5 34 14 34 10 0
13 -10 12 -31z m518 -19 c-8 -13 -12 -14 -28 -2 -16 12 -17 17 -6 30 12 14 15
14 28 2 9 -10 11 -20 6 -30z m-751 -50 c-7 -77 -28 -88 -28 -15 0 32 -4 44
-12 41 -7 -3 -13 0 -13 7 0 16 43 51 52 42 3 -4 4 -38 1 -75z m-143 25 c-7 -3
-16 2 -21 9 -16 25 -9 32 12 13 13 -12 16 -20 9 -22z m67 -4 c-3 -8 -6 -5 -6
6 -1 11 2 17 5 13 3 -3 4 -12 1 -19z m776 -60 c-1 -40 -3 -75 -3 -77 0 -2 -7
3 -16 10 -12 10 -15 25 -11 55 3 33 1 41 -9 37 -20 -7 -17 17 4 33 32 25 38
16 35 -58z m99 50 c-7 -7 -12 -8 -12 -2 0 14 12 26 19 19 2 -3 -1 -11 -7 -17z
m-1002 -23 c7 -8 8 -15 2 -15 -5 0 -15 7 -22 15 -7 8 -8 15 -2 15 5 0 15 -7
22 -15z m1060 -30 c-7 -9 -15 -13 -17 -11 -7 7 7 26 19 26 6 0 6 -6 -2 -15z
m-143 -37 c-3 -7 -5 -2 -5 12 0 14 2 19 5 13 2 -7 2 -19 0 -25z m-972 11 c12
-19 -5 -23 -22 -6 -16 16 -16 17 -1 17 9 0 20 -5 23 -11z m157 -24 c-3 -25 0
-35 10 -35 9 0 14 -12 15 -37 1 -21 -1 -29 -4 -18 -11 43 -23 38 -23 -9 0 -26
-4 -45 -9 -42 -5 3 -12 -10 -15 -29 -4 -19 -12 -37 -18 -41 -7 -4 -8 -3 -4 4
5 8 -2 12 -18 12 -15 0 -30 8 -36 19 -24 46 0 121 40 121 14 0 17 5 13 23 -4
15 -3 19 5 12 6 -5 14 -26 17 -45 10 -57 15 -48 15 28 0 40 4 72 8 72 4 0 6
-16 4 -35z m28 15 c0 -5 -5 -10 -11 -10 -5 0 -7 5 -4 10 3 6 8 10 11 10 2 0 4
-4 4 -10z m738 -45 c0 -16 -2 -15 -8 5 -11 34 -11 60 0 35 5 -11 8 -29 8 -40z
m257 25 c-3 -5 -14 -10 -23 -10 -15 0 -15 2 -2 10 20 13 33 13 25 0z m-1219
-25 c4 -8 0 -22 -7 -31 -10 -13 -14 -13 -26 -1 -16 16 -7 47 13 47 8 0 17 -7
20 -15z m290 -22 c2 -15 1 -36 -2 -47 -9 -26 -24 -1 -24 40 0 52 20 57 26 7z
m-39 -25 c-3 -7 -5 -2 -5 12 0 14 2 19 5 13 2 -7 2 -19 0 -25z m753 20 c0 -7
-4 -19 -9 -27 -11 -17 -25 3 -17 24 7 18 26 20 26 3z m36 -46 c-12 -12 -18 8
-10 35 l8 28 4 -28 c2 -16 1 -31 -2 -35z m-976 29 c0 -52 -14 -111 -26 -111
-10 0 -12 11 -7 45 5 39 4 45 -11 39 -21 -8 -21 4 1 28 21 23 43 23 43 -1z
m1192 -3 c-6 -6 -15 -8 -19 -4 -4 4 -1 11 7 16 8 5 17 7 19 4 3 -2 -1 -10 -7
-16z m-712 -4 c0 -8 -5 -12 -10 -9 -6 4 -8 11 -5 16 9 14 15 11 15 -7z m360
-26 c0 -23 -3 -29 -11 -21 -6 6 -8 20 -4 32 9 30 15 26 15 -11z m-955 1 c4 -6
5 -12 2 -15 -7 -7 -37 7 -37 17 0 13 27 11 35 -2z m302 -11 c-3 -8 -6 -5 -6 6
-1 11 2 17 5 13 3 -3 4 -12 1 -19z m746 -8 c-3 -11 -2 -27 1 -36 5 -13 9 -14
21 -4 13 11 15 8 15 -15 0 -20 -4 -26 -15 -21 -17 6 -35 -22 -35 -53 0 -27 17
-27 25 0 5 15 14 20 33 18 15 -2 33 0 39 4 7 5 21 10 31 12 15 3 18 -2 14 -21
-2 -13 -9 -27 -15 -31 -6 -4 -8 0 -4 10 3 10 2 17 -3 17 -6 0 -10 -9 -10 -19
0 -11 -3 -27 -6 -35 -6 -15 -8 -15 -20 1 -12 16 -13 15 -14 -12 0 -24 -2 -27
-11 -15 -9 12 -10 12 -5 -3 3 -10 6 -22 6 -27 0 -5 14 -3 30 3 17 6 30 15 30
20 0 4 5 5 10 2 13 -8 13 -55 1 -55 -5 0 -12 8 -14 18 -4 14 -5 13 -6 -4 0
-11 -8 -29 -16 -40 -14 -18 -14 -18 -15 11 -2 32 -4 28 -15 -19 -5 -23 -8 -27
-16 -15 -7 11 -9 10 -9 -6 -1 -20 -1 -20 -15 -1 -14 18 -15 17 -17 -25 0 -24
0 -51 0 -59 3 -30 -9 -63 -19 -53 -16 16 -9 438 7 465 10 16 22 7 17 -12z
m227 -5 c17 -20 5 -62 -23 -77 l-22 -12 23 -5 c38 -10 25 -26 -20 -26 -33 0
-42 3 -39 15 2 8 3 23 3 33 -1 13 4 16 17 12 25 -8 59 31 42 48 -10 9 -15 8
-26 -7 -18 -24 -39 -12 -25 15 13 23 52 25 70 4z m80 -5 c9 -16 8 -22 -5 -26
-21 -8 -39 10 -32 30 9 22 24 20 37 -4z m-1013 -7 c4 -9 1 -19 -5 -21 -9 -3
-9 -9 -1 -24 7 -13 8 -46 2 -96 -4 -42 -6 -86 -5 -97 2 -11 0 -35 -3 -54 -5
-26 -9 -31 -16 -20 -5 8 -6 22 -3 32 5 16 8 117 5 180 0 16 -5 26 -10 23 -4
-3 -6 -16 -4 -30 3 -13 0 -27 -6 -30 -12 -8 -16 51 -5 79 5 13 8 14 15 3 6 -8
9 2 9 30 0 42 15 56 27 25z m608 -120 c-2 -65 2 -151 8 -191 8 -55 8 -75 -1
-84 -6 -6 -14 -9 -18 -6 -6 7 -9 248 -4 341 2 31 7 57 11 57 5 0 7 -53 4 -117z
m-679 0 c-4 -60 -9 -148 -12 -198 -3 -49 -2 -86 2 -82 4 4 9 33 11 64 6 103
14 163 24 168 5 3 7 -6 4 -22 -4 -25 -13 -144 -14 -200 -1 -14 -7 -23 -16 -23
-8 0 -15 -3 -15 -7 -1 -5 -2 -29 -4 -55 -2 -27 0 -48 5 -48 4 0 10 21 12 48 2
26 4 -4 5 -65 1 -70 -2 -113 -8 -113 -6 0 -10 27 -10 62 0 97 -7 64 -13 -60
-3 -63 -8 -117 -11 -120 -3 -3 -6 4 -6 16 0 15 -5 20 -15 16 -17 -7 -30 34
-22 74 3 16 2 34 -4 42 -7 13 -9 13 -9 0 -1 -9 -5 -5 -10 8 -6 14 -6 41 -1 70
5 26 10 54 10 62 -1 58 5 120 10 120 3 0 6 37 6 83 0 51 4 80 10 77 6 -3 9
-34 8 -70 0 -36 1 -53 4 -37 5 28 18 36 26 15 3 -7 6 -3 6 10 1 13 -3 20 -9
17 -6 -4 -10 7 -10 25 0 17 4 29 9 25 14 -8 22 26 22 102 0 67 5 103 16 103 3
0 2 -48 -1 -107z m-306 87 c8 -5 11 -12 8 -16 -10 -9 -38 3 -38 16 0 12 10 13
30 0z m404 -45 c-4 -8 -8 -15 -10 -15 -2 0 -4 7 -4 15 0 8 4 15 10 15 5 0 7
-7 4 -15z m1011 5 c-3 -5 -13 -10 -21 -10 -8 0 -12 5 -9 10 3 6 13 10 21 10 8
0 12 -4 9 -10z m-1248 -37 c-3 -10 -5 -4 -5 12 0 17 2 24 5 18 2 -7 2 -21 0
-30z m110 15 c-3 -8 -6 -5 -6 6 -1 11 2 17 5 13 3 -3 4 -12 1 -19z m-302 -18
c3 -5 -1 -10 -9 -10 -8 0 -18 5 -21 10 -3 6 1 10 9 10 8 0 18 -4 21 -10z m226
-13 c-10 -9 -11 -8 -5 6 3 10 9 15 12 12 3 -3 0 -11 -7 -18z m41 -19 c-9 -9
-12 -7 -12 12 0 19 3 21 12 12 9 -9 9 -15 0 -24z m38 12 c0 -11 -4 -20 -10
-20 -5 0 -10 9 -10 20 0 11 5 20 10 20 6 0 10 -9 10 -20z m750 -67 c-9 -15
-10 -12 -6 16 3 18 7 43 8 55 1 11 3 4 5 -16 2 -21 -1 -46 -7 -55z m-863 45
c-3 -8 -6 -5 -6 6 -1 11 2 17 5 13 3 -3 4 -12 1 -19z m1263 2 c-8 -5 -17 -7
-19 -4 -3 3 1 9 9 14 8 5 17 7 19 4 3 -3 -1 -9 -9 -14z m-1230 -68 c-7 -13 -9
-8 -9 23 0 35 1 37 10 17 6 -15 5 -30 -1 -40z m-240 26 c0 -13 -32 -6 -37 9
-3 7 3 9 16 6 12 -3 21 -10 21 -15z m1277 -10 c-3 -7 -5 -2 -5 12 0 14 2 19 5
13 2 -7 2 -19 0 -25z m-1175 -15 c21 -18 23 -60 6 -98 -13 -29 -64 -36 -75
-10 -8 22 4 30 21 16 15 -13 36 -7 36 9 0 5 -7 7 -15 4 -39 -15 -64 64 -27 85
24 14 33 13 54 -6z m1393 -3 c3 -6 -4 -10 -17 -10 -18 0 -20 2 -8 10 19 12 18
12 25 0z m-1358 -62 c-2 -13 -4 -3 -4 22 0 25 2 35 4 23 2 -13 2 -33 0 -45z
m-139 15 c3 -19 -1 -23 -22 -23 -21 0 -26 5 -26 26 0 21 4 25 23 22 14 -2 23
-11 25 -25z m-71 -5 c-3 -8 -6 -5 -6 6 -1 11 2 17 5 13 3 -3 4 -12 1 -19z
m250 -10 c-3 -8 -6 -5 -6 6 -1 11 2 17 5 13 3 -3 4 -12 1 -19z m62 -37 c-11
-68 -23 -82 -14 -16 7 56 14 80 19 74 2 -2 0 -28 -5 -58z m-32 12 c-3 -10 -5
-4 -5 12 0 17 2 24 5 18 2 -7 2 -21 0 -30z m869 -19 c-5 -53 -16 -53 -16 0 0
27 4 45 9 41 6 -3 9 -21 7 -41z m121 4 c-3 -7 -5 -2 -5 12 0 14 2 19 5 13 2
-7 2 -19 0 -25z m303 22 c0 -5 -8 -10 -17 -10 -15 0 -16 2 -3 10 19 12 20 12
20 0z m-82 -12 c13 -17 14 -99 0 -115 -23 -28 -78 -5 -78 31 0 13 24 5 36 -11
10 -15 15 -16 26 -5 11 11 10 16 -6 28 -20 14 -20 14 0 28 24 18 10 34 -16 18
-26 -16 -40 6 -15 25 23 16 40 17 53 1z m-1281 -40 c-3 -7 -5 -2 -5 12 0 14 2
19 5 13 2 -7 2 -19 0 -25z m-147 2 c0 -5 -9 -10 -20 -10 -11 0 -20 5 -20 10 0
6 9 10 20 10 11 0 20 -4 20 -10z m1512 -16 c7 -7 -2 -44 -11 -44 -17 1 -33 20
-28 34 6 16 28 22 39 10z m-1275 -81 c-3 -10 -5 -2 -5 17 0 19 2 27 5 18 2
-10 2 -26 0 -35z m-30 15 c-3 -8 -6 -5 -6 6 -1 11 2 17 5 13 3 -3 4 -12 1 -19z
m1073 12 c0 -5 -4 -10 -10 -10 -5 0 -10 5 -10 10 0 6 5 10 10 10 6 0 10 -4 10
-10z m-1280 -10 c-19 -13 -30 -13 -30 0 0 6 10 10 23 10 18 0 19 -2 7 -10z
m1500 -30 c0 -5 -7 -10 -15 -10 -8 0 -15 5 -15 10 0 6 7 10 15 10 8 0 15 -4
15 -10z m-232 -25 c-3 -3 -9 2 -12 12 -6 14 -5 15 5 6 7 -7 10 -15 7 -18z
m-1092 -12 c-10 -10 -19 5 -10 18 6 11 8 11 12 0 2 -7 1 -15 -2 -18z m-146 -2
c0 -12 -29 -23 -42 -15 -6 4 -5 10 3 15 18 11 39 11 39 0z m357 -58 c-3 -10
-5 -4 -5 12 0 17 2 24 5 18 2 -7 2 -21 0 -30z m913 27 c0 -5 -2 -10 -4 -10 -3
0 -8 5 -11 10 -3 6 -1 10 4 10 6 0 11 -4 11 -10z m180 -10 c0 -5 -4 -10 -9
-10 -6 0 -13 5 -16 10 -3 6 1 10 9 10 9 0 16 -4 16 -10z m-1440 -10 c0 -5 -5
-10 -11 -10 -5 0 -7 5 -4 10 3 6 8 10 11 10 2 0 4 -4 4 -10z m190 -25 c0 -8
-4 -15 -10 -15 -5 0 -10 7 -10 15 0 8 5 15 10 15 6 0 10 -7 10 -15z m154 -73
c-4 -58 -14 -48 -13 14 0 39 3 52 8 39 4 -11 7 -35 5 -53z m506 48 c0 -11 -4
-20 -8 -20 -4 0 -8 9 -8 20 0 11 4 20 8 20 4 0 8 -9 8 -20z m560 -10 c12 -8
11 -10 -7 -10 -13 0 -23 5 -23 10 0 13 11 13 30 0z m-462 -140 c-3 -112 -2
-125 9 -98 7 17 14 51 14 77 l2 46 7 -50 c4 -27 5 -53 3 -57 -2 -5 7 -8 21 -8
17 0 26 -5 26 -16 0 -12 -7 -15 -25 -12 -31 6 -33 -4 -2 -17 48 -22 20 -103
-31 -90 -22 5 -24 3 -20 -22 3 -15 9 -36 13 -45 4 -10 3 -18 -3 -18 -5 0 -14
12 -20 28 -13 33 -22 132 -12 132 4 0 3 23 -1 51 -11 66 -14 214 -5 228 20 31
27 -10 24 -129z m326 59 c-1 -33 -5 -63 -8 -66 -9 -9 -38 6 -31 17 4 6 -5 10
-19 10 -32 0 -33 18 -5 54 11 14 17 30 14 36 -3 5 1 10 10 10 9 0 13 5 9 11
-5 8 -1 8 14 0 17 -9 19 -19 16 -72z m-1063 -2 c-8 -8 -11 -5 -11 9 0 27 14
41 18 19 2 -9 -1 -22 -7 -28z m676 -14 c-3 -10 -5 -4 -5 12 0 17 2 24 5 18 2
-7 2 -21 0 -30z m491 19 c2 -7 -2 -10 -12 -6 -9 3 -16 11 -16 16 0 13 23 5 28
-10z m-1071 -44 c-3 -7 -5 -2 -5 12 0 14 2 19 5 13 2 -7 2 -19 0 -25z m30 0
c-3 -7 -5 -2 -5 12 0 14 2 19 5 13 2 -7 2 -19 0 -25z m1004 -32 c-14 -16 -41
-11 -41 8 0 7 5 17 12 24 19 19 46 -11 29 -32z m-1231 -31 c-7 -8 -17 -12 -23
-8 -6 4 -3 11 8 19 23 17 32 10 15 -11z m1178 -23 c2 -7 -2 -10 -12 -6 -9 3
-16 11 -16 16 0 13 23 5 28 -10z m-1118 -21 c0 -12 -29 -35 -36 -28 -7 6 17
36 29 37 4 0 7 -4 7 -9z m1068 -40 c3 -8 -1 -12 -9 -9 -7 2 -15 10 -17 17 -3
8 1 12 9 9 7 -2 15 -10 17 -17z m-1093 -18 c7 17 8 17 20 0 7 -10 11 -22 8
-27 -4 -5 -1 -6 6 -2 6 4 9 12 6 17 -4 5 -2 9 4 9 5 0 18 3 28 7 17 6 17 6 0
-14 -10 -11 -17 -24 -16 -29 4 -23 -2 -45 -11 -39 -6 4 -8 10 -5 15 3 5 1 11
-5 15 -5 3 -10 1 -10 -6 0 -7 -13 0 -29 15 -18 18 -27 34 -23 44 5 13 7 12 13
-4 6 -18 7 -18 14 -1z m1029 -29 c4 -10 1 -14 -6 -12 -15 5 -23 28 -10 28 5 0
13 -7 16 -16z m-874 -22 c-1 -23 -18 -34 -39 -23 -17 10 -19 15 -9 31 9 14 16
16 30 9 10 -5 18 -13 18 -17z m206 -81 c-6 -25 -15 -44 -21 -41 -12 5 -7 32 7
41 5 4 9 19 8 35 -1 16 -1 40 0 54 2 22 3 21 10 -9 5 -20 3 -52 -4 -80z m353
47 c-3 -50 0 -58 16 -58 8 0 15 -9 15 -20 0 -11 -4 -20 -10 -20 -5 0 -10 7
-10 16 0 10 -6 14 -15 10 -11 -4 -15 2 -15 27 0 34 9 77 17 77 2 0 3 -15 2
-32z m245 16 c9 -24 7 -28 -9 -14 -17 14 -20 30 -6 30 5 0 12 -7 15 -16z
m-748 -20 c-3 -9 -6 -18 -6 -20 0 -2 -7 -4 -15 -4 -13 0 -14 4 -5 20 13 24 35
27 26 4z m698 -11 c7 -17 -9 -33 -32 -33 -19 0 -27 31 -11 41 21 13 36 11 43
-8z m-154 -9 c0 -8 -4 -12 -10 -9 -5 3 -10 10 -10 16 0 5 5 9 10 9 6 0 10 -7
10 -16z m-102 -29 c-3 -3 -9 2 -12 12 -6 14 -5 15 5 6 7 -7 10 -15 7 -18z
m-238 -27 c0 6 5 12 10 12 14 0 13 -27 -1 -36 -11 -7 -29 12 -29 31 0 6 5 3
10 -5 6 -10 10 -11 10 -2z m105 -19 c0 -17 -6 -24 -20 -24 -23 0 -33 34 -13
46 20 13 33 5 33 -22z m145 5 c0 -14 -4 -23 -10 -19 -5 3 -10 15 -10 26 0 10
5 19 10 19 6 0 10 -12 10 -26z m-80 -4 c0 -11 -4 -20 -10 -20 -5 0 -10 9 -10
20 0 11 5 20 10 20 6 0 10 -9 10 -20z"/>
<path d="M5835 4940 c-4 -17 -5 -34 -2 -36 3 -3 8 9 12 26 4 17 5 34 2 36 -3
3 -8 -9 -12 -26z"/>
<path d="M5845 4655 c-4 -37 -5 -69 -2 -71 2 -3 8 25 12 61 4 37 5 69 2 71 -2
3 -8 -25 -12 -61z"/>
<path d="M5861 4145 c0 -31 2 -36 9 -23 6 10 7 25 1 40 -9 20 -10 18 -10 -17z"/>
<path d="M5922 4171 c-7 -4 -15 -32 -17 -62 -3 -30 -7 -76 -10 -103 -9 -87 10
-37 26 70 9 57 15 104 15 104 -1 0 -7 -4 -14 -9z"/>
<path d="M6028 4080 c-3 -16 -1 -30 3 -30 4 0 9 14 11 30 3 17 1 30 -3 30 -4
0 -9 -13 -11 -30z"/>
<path d="M5771 3794 c0 -11 3 -14 6 -6 3 7 2 16 -1 19 -3 4 -6 -2 -5 -13z"/>
<path d="M5950 3769 c0 -5 5 -7 10 -4 6 3 10 8 10 11 0 2 -4 4 -10 4 -5 0 -10
-5 -10 -11z"/>
<path d="M5951 3718 c0 -21 1 -22 8 -3 8 18 9 18 14 2 4 -15 5 -15 3 -1 -2 27
-26 29 -25 2z"/>
<path d="M6096 5061 c-3 -5 1 -11 9 -15 8 -3 15 -1 15 4 0 13 -18 22 -24 11z"/>
<path d="M6055 5029 c-11 -16 -1 -19 13 -3 7 8 8 14 3 14 -5 0 -13 -5 -16 -11z"/>
<path d="M6093 4943 c9 -2 25 -2 35 0 9 3 1 5 -18 5 -19 0 -27 -2 -17 -5z"/>
<path d="M6066 4914 c-9 -23 -3 -26 25 -15 13 5 18 10 11 10 -7 1 -10 6 -7 11
3 6 0 10 -8 10 -8 0 -18 -7 -21 -16z"/>
<path d="M6124 4895 c-4 -8 -11 -12 -16 -9 -6 4 -8 -1 -4 -13 5 -17 3 -20 -17
-16 -15 3 -24 0 -24 -9 0 -7 -4 -26 -7 -43 l-7 -30 18 32 c17 29 19 31 30 15
11 -15 12 -16 12 0 1 9 5 18 9 20 5 2 12 18 15 36 7 33 1 44 -9 17z"/>
<path d="M6030 4839 c0 -5 5 -7 10 -4 6 3 10 8 10 11 0 2 -4 4 -10 4 -5 0 -10
-5 -10 -11z"/>
<path d="M6020 4810 c-8 -5 -12 -12 -9 -15 4 -3 12 1 19 10 14 17 11 19 -10 5z"/>
<path d="M6117 4723 c-4 -3 -7 -11 -7 -17 0 -6 5 -5 12 2 6 6 9 14 7 17 -3 3
-9 2 -12 -2z"/>
<path d="M6110 4602 c0 -29 4 -52 10 -52 6 0 7 19 3 48 -8 64 -13 66 -13 4z"/>
<path d="M6192 4545 c-7 -8 -8 -15 -3 -15 6 0 8 -7 5 -15 -4 -8 -2 -15 4 -15
11 0 22 23 22 46 0 18 -11 17 -28 -1z"/>
<path d="M6195 4460 c5 -22 3 -32 -9 -36 -17 -7 -22 -34 -6 -34 6 0 10 -7 10
-16 0 -16 -11 -16 -67 2 -35 11 10 -13 64 -35 l51 -20 -11 30 c-10 24 -9 32 3
39 8 5 10 10 4 10 -7 0 -15 20 -18 45 -4 25 -12 45 -17 45 -7 0 -8 -12 -4 -30z"/>
<path d="M6479 4307 c-2 -56 -3 -60 -16 -64 -9 -3 -13 7 -14 29 -1 27 -3 29
-6 8 -3 -14 -9 -28 -15 -31 -5 -4 5 -11 23 -18 18 -6 34 -10 35 -8 7 6 7 107
1 114 -4 3 -8 -10 -8 -30z"/>
<path d="M6347 3948 c8 -46 13 -48 13 -5 0 21 -4 37 -10 37 -5 0 -7 -14 -3
-32z"/>
<path d="M6386 3938 c-3 -17 -2 -36 4 -42 7 -7 10 4 10 32 0 50 -5 54 -14 10z"/>
<path d="M5524 4756 c-8 -21 -1 -66 11 -69 6 -1 11 17 13 41 3 41 -12 59 -24
28z"/>
<path d="M6401 4495 c1 -40 1 -40 11 -12 7 21 7 32 -1 40 -8 8 -11 0 -10 -28z"/>
<path d="M5561 4035 c1 -40 1 -40 10 -10 5 18 5 33 -1 39 -7 7 -10 -4 -9 -29z"/>
<path d="M5335 4470 c-8 -14 3 -30 21 -30 8 0 14 9 14 20 0 21 -24 28 -35 10z"/>
<path d="M6264 3789 c-4 -8 0 -9 15 -4 22 7 30 -10 9 -18 -8 -3 -6 -6 5 -6 11
-1 17 6 17 19 0 22 -34 28 -46 9z"/>
<path d="M5180 4778 c0 -19 2 -20 10 -8 13 19 13 30 0 30 -5 0 -10 -10 -10
-22z"/>
<path d="M5149 4698 c-12 -29 -23 -55 -24 -58 -1 -3 -4 -14 -7 -25 -4 -11 -9
-44 -12 -73 -3 -29 -11 -62 -16 -73 -6 -10 -7 -19 -2 -19 5 0 9 -13 8 -30 -1
-16 -4 -30 -8 -30 -4 0 -5 -6 -3 -12 2 -7 6 -40 9 -73 3 -33 12 -82 21 -110 8
-27 17 -59 19 -70 6 -32 72 -172 86 -180 6 -4 2 12 -10 36 -108 211 -129 478
-55 693 14 39 23 71 21 73 -2 2 -14 -20 -27 -49z"/>
<path d="M8850 4150 c0 -5 5 -10 10 -10 6 0 10 5 10 10 0 6 -4 10 -10 10 -5 0
-10 -4 -10 -10z"/>
<path d="M5415 4139 c-10 -15 3 -25 16 -12 7 7 7 13 1 17 -6 3 -14 1 -17 -5z"/>
<path d="M5290 4116 c0 -2 7 -6 15 -10 8 -3 15 -1 15 4 0 6 -7 10 -15 10 -8 0
-15 -2 -15 -4z"/>
<path d="M5400 4075 c0 -8 9 -15 20 -15 11 0 20 7 20 15 0 8 -9 15 -20 15 -11
0 -20 -7 -20 -15z"/>
<path d="M8698 4059 c-10 -17 -22 -28 -27 -25 -5 4 -19 -35 -31 -84 -11 -50
-25 -102 -30 -115 -11 -28 -9 -29 43 -14 31 8 37 14 37 37 0 15 12 61 25 102
27 82 32 130 13 130 -7 0 -21 -14 -30 -31z m-24 -123 c-4 -31 -13 -64 -21 -73
-13 -16 -14 -14 -9 22 7 52 26 118 32 112 2 -2 2 -30 -2 -61z"/>
<path d="M5360 4015 c0 -8 5 -15 10 -15 6 0 10 7 10 15 0 8 -4 15 -10 15 -5 0
-10 -7 -10 -15z"/>
<path d="M5331 3984 c0 -11 3 -14 6 -6 3 7 2 16 -1 19 -3 4 -6 -2 -5 -13z"/>
<path d="M5236 3917 c3 -10 9 -15 12 -12 3 3 0 11 -7 18 -10 9 -11 8 -5 -6z"/>
<path d="M9440 2710 c0 -10 89 -140 96 -140 6 0 4 3 -49 88 -38 61 -47 71 -47
52z"/>
<path d="M9260 2650 c0 -5 7 -10 16 -10 8 0 12 5 9 10 -3 6 -10 10 -16 10 -5
0 -9 -4 -9 -10z"/>
<path d="M8120 2613 c-116 -38 -213 -99 -295 -182 l-39 -41 -1 -99 c0 -68 -5
-104 -14 -115 -13 -15 -17 -13 -45 20 -17 21 -33 49 -36 63 -6 32 -35 39 -62
14 -21 -18 -21 -18 -9 4 15 30 14 38 -4 23 -12 -10 -16 -9 -21 3 -3 9 -3 21 1
27 13 21 -11 9 -25 -12 -14 -22 -15 -22 -21 22 -3 25 -14 63 -23 85 -15 36
-15 38 0 20 16 -20 16 -19 9 5 -9 32 -32 50 -63 50 l-23 0 21 -30 c12 -16 24
-30 28 -30 16 0 32 -59 32 -120 0 -68 27 -165 68 -246 11 -22 24 -57 28 -79
l7 -39 -43 42 c-23 24 -47 42 -54 41 -33 -6 -67 25 -112 100 l-27 45 34 29
c31 26 32 28 9 22 -14 -4 -31 -12 -38 -18 -16 -13 -17 -12 -36 57 -10 32 -19
56 -22 53 -5 -5 8 -67 21 -102 5 -12 -14 1 -44 30 -29 28 -55 62 -58 78 -7 36
-29 34 -49 -4 -19 -37 -13 -107 17 -205 10 -34 23 -84 28 -110 5 -27 13 -58
17 -69 5 -13 -11 -3 -46 28 -30 26 -60 47 -66 47 -6 0 -24 17 -40 38 -50 66
-193 200 -196 184 -2 -9 -14 2 -31 29 -16 25 -49 57 -75 74 -26 15 -59 41 -74
57 -15 15 -35 28 -45 28 -10 0 -27 7 -37 15 -16 12 -22 12 -28 2 -6 -9 -13 -6
-28 12 -35 41 -21 12 23 -47 63 -87 190 -196 290 -251 55 -30 84 -51 77 -56
-8 -5 -1 -19 22 -44 41 -44 78 -91 58 -73 -8 6 -22 12 -32 12 -11 0 -15 5 -12
14 3 8 -3 16 -16 19 -12 3 -19 10 -15 16 3 6 -1 11 -9 11 -9 0 -16 9 -16 20 0
13 -5 18 -15 14 -8 -4 -15 -1 -15 5 0 6 -7 11 -15 11 -8 0 -15 5 -15 11 0 13
-62 70 -69 64 -8 -8 68 -91 263 -288 108 -108 196 -201 196 -205 -1 -4 -9 3
-20 16 -10 12 -21 19 -24 14 -9 -15 38 -93 103 -171 35 -42 67 -86 72 -99 20
-51 97 -356 93 -364 -3 -4 -23 -5 -44 -2 -22 4 -76 1 -120 -7 -70 -11 -83 -11
-91 2 -7 12 -9 11 -9 -2 0 -20 31 -27 158 -35 69 -5 96 -3 102 6 6 9 14 8 34
-5 27 -18 39 -18 266 0 105 8 119 10 127 19 5 4 3 7 -2 6 -28 -6 -55 2 -55 15
0 9 -6 18 -14 21 -21 8 -76 -24 -77 -44 0 -13 -3 -11 -9 5 -5 13 -14 23 -20
23 -14 0 -13 -17 3 -24 6 -3 3 -4 -8 -3 -32 3 -36 17 -30 122 10 170 13 185
43 196 50 19 103 62 129 106 30 51 26 64 -7 28 -13 -14 -32 -25 -42 -25 -40 0
-105 -39 -131 -79 -31 -47 -33 -55 -11 -47 13 5 15 0 10 -31 -3 -21 -11 -82
-18 -136 -6 -54 -18 -106 -25 -115 -12 -14 -13 2 -8 108 9 191 16 215 91 319
37 52 62 96 58 103 -4 6 -3 8 3 5 9 -6 65 58 134 153 43 60 44 63 18 55 -13
-4 -27 -12 -30 -18 -4 -5 -13 -6 -20 -1 -12 6 -12 5 0 -9 9 -12 10 -17 2 -17
-7 0 -9 -5 -5 -11 4 -8 -1 -9 -15 -4 -18 5 -22 3 -19 -12 2 -12 -3 -18 -14
-17 -10 1 -18 -2 -18 -6 0 -4 -13 -6 -29 -4 -20 2 -31 -2 -35 -13 -6 -14 -11
-12 -36 12 -17 16 -30 24 -30 18 0 -6 7 -16 15 -23 9 -7 25 -27 37 -44 l21
-31 -33 30 c-19 17 -29 23 -22 14 9 -12 8 -18 -6 -30 -10 -9 -24 -13 -31 -11
-8 3 -11 0 -7 -6 4 -6 -2 -8 -14 -5 -11 3 -20 0 -20 -6 0 -13 -86 -15 -95 -2
-10 17 66 141 103 169 75 58 178 159 202 199 14 23 53 73 86 110 43 48 72 94
98 153 21 47 51 103 69 124 31 40 77 150 77 186 0 35 -54 59 -100 43z m-942
-628 c-3 -3 -9 2 -12 12 -6 14 -5 15 5 6 7 -7 10 -15 7 -18z m-67 -37 c11 -21
11 -22 -4 -9 -10 7 -17 17 -17 22 0 15 9 10 21 -13z m89 -83 c52 -56 53 -57
10 -20 -64 55 -70 62 -70 76 0 7 1 10 3 8 1 -2 27 -31 57 -64z m330 -210 c0
-1 -17 -1 -37 1 -20 1 -45 -2 -54 -7 -10 -5 -24 -6 -33 -3 -11 4 -8 12 17 34
l31 28 38 -26 c21 -13 38 -26 38 -27z m-96 -107 c-3 -4 4 -11 13 -17 10 -5 14
-13 10 -17 -4 -4 5 -20 20 -36 15 -15 28 -36 29 -45 1 -10 8 -38 14 -62 6 -25
10 -56 8 -70 -2 -17 -11 2 -26 57 -12 46 -20 88 -16 93 3 5 0 9 -5 9 -6 0 -32
33 -59 73 -67 103 -69 107 -24 62 22 -22 38 -43 36 -47z m96 18 c0 -2 -7 -6
-15 -10 -8 -3 -15 -1 -15 4 0 6 7 10 15 10 8 0 15 -2 15 -4z m57 -248 c-3 -62
-7 -115 -8 -118 -1 -3 -10 44 -20 104 -10 61 -15 114 -13 118 3 4 14 8 26 8
20 0 20 -4 15 -112z"/>
<path d="M2125 2600 c-1 -3 -1 -54 1 -115 2 -60 4 -119 3 -130 0 -11 -1 -86
-2 -167 -2 -120 1 -148 12 -148 11 0 11 -3 1 -15 -10 -13 -9 -15 10 -15 16 0
20 -4 16 -15 -3 -8 -2 -15 3 -15 4 0 8 -16 9 -35 1 -33 -7 -41 -40 -36 -4 0 0
-12 8 -27 16 -32 18 -42 5 -42 -5 0 -12 8 -14 18 -3 10 -5 6 -6 -10 0 -16 4
-28 9 -28 6 0 10 -7 10 -16 0 -8 -4 -13 -8 -10 -4 2 -9 -3 -10 -12 -8 -64 -9
-78 -4 -89 2 -7 8 -10 13 -7 5 3 9 -8 9 -25 0 -16 -4 -33 -10 -36 -5 -3 -10
-11 -10 -16 0 -6 5 -7 10 -4 6 3 10 2 10 -3 0 -6 -7 -13 -16 -16 -13 -5 -15
-25 -12 -125 3 -117 3 -119 28 -128 22 -8 23 -10 7 -16 -11 -4 -16 -3 -12 3 3
6 2 10 -3 10 -17 0 -23 -32 -16 -79 4 -25 9 -40 11 -33 7 20 23 14 23 -9 0
-16 -4 -19 -20 -14 -15 5 -18 3 -14 -9 5 -12 21 -16 66 -16 38 0 57 -4 53 -10
-4 -6 -15 -8 -26 -5 -16 5 -19 1 -20 -22 l-1 -28 -10 28 c-10 29 -12 30 -43
17 -18 -7 -18 -8 8 -15 33 -9 35 -21 5 -31 -13 -4 -26 -12 -30 -18 -11 -16
-10 -286 1 -286 5 0 12 6 14 13 3 6 6 2 6 -11 1 -15 10 -26 27 -32 33 -13 151
-13 159 0 4 6 12 7 18 3 15 -9 47 -12 42 -3 -2 4 14 13 35 20 44 15 52 29 18
31 -17 1 -19 2 -5 6 9 2 17 9 17 14 0 6 13 2 30 -8 48 -28 56 -3 9 30 l-39 28
-36 -36 c-28 -29 -38 -35 -47 -25 -9 10 -9 14 1 17 20 8 14 22 -8 16 -11 -3
-17 -9 -14 -14 6 -10 -19 -12 -29 -2 -4 3 -2 12 4 20 9 9 8 13 0 13 -8 0 -8 6
1 20 10 15 10 24 1 38 -9 15 -8 19 2 19 11 0 30 -49 26 -69 0 -4 11 -3 25 2
32 13 94 13 94 1 0 -15 41 -24 53 -12 14 14 54 14 62 1 9 -14 34 -12 50 4 11
10 24 12 51 6 19 -5 38 -11 41 -14 3 -3 20 0 37 7 36 15 76 11 76 -7 0 -7 6
-13 13 -13 6 0 22 -3 35 -7 13 -5 22 -3 22 3 0 6 -6 11 -14 11 -8 0 -24 9 -37
21 -24 20 -24 20 -1 9 15 -7 22 -7 22 0 0 5 -4 10 -10 10 -5 0 -10 4 -10 9 0
5 15 5 34 -1 19 -6 41 -8 50 -5 20 8 16 39 -8 66 -13 14 -14 20 -4 24 7 2 10
8 6 12 -4 4 -14 2 -22 -4 -8 -7 -20 -10 -25 -7 -5 4 -12 2 -16 -4 -3 -5 -16
-10 -28 -9 l-22 0 23 9 c12 5 22 14 22 20 0 17 80 12 86 -5 4 -8 14 -15 24
-15 23 0 35 -17 18 -22 -7 -3 1 -5 19 -5 18 0 30 4 27 9 -3 4 -11 8 -18 8 -8
0 -19 7 -26 15 -10 12 -9 15 6 15 16 0 17 2 4 10 -8 5 -11 10 -5 10 5 0 25
-18 45 -40 26 -29 39 -37 50 -30 12 8 12 11 -3 28 -9 10 -17 25 -17 32 0 9 5
7 16 -6 17 -21 14 -7 -8 38 -7 16 -19 28 -27 28 -11 0 -11 -3 0 -17 12 -14 12
-16 0 -8 -11 6 -13 4 -8 -9 6 -14 1 -13 -21 6 -25 20 -26 23 -10 26 22 4 24
22 3 22 -8 0 -15 4 -15 10 0 11 24 3 58 -18 15 -10 22 -11 22 -3 0 7 5 9 11 5
7 -4 7 2 -1 17 -18 34 -24 38 -15 10 5 -17 4 -22 -5 -19 -16 5 -22 56 -8 64 6
4 19 -4 29 -17 15 -20 17 -21 16 -5 -1 10 4 21 12 24 10 3 12 0 7 -13 -4 -11
-1 -22 6 -28 9 -6 8 -7 -4 -3 -20 6 -34 -10 -16 -17 10 -4 9 -8 -2 -16 -8 -6
-19 -12 -25 -14 -5 -2 1 -14 12 -26 l22 -23 -5 23 c-5 19 -4 21 5 9 10 -13 12
-13 21 0 8 13 12 12 29 -7 11 -11 17 -24 13 -29 -4 -4 -1 -4 6 0 7 4 9 13 5
19 -9 16 -46 42 -55 39 -5 -1 -8 2 -8 8 0 13 17 13 25 0 10 -16 35 -12 35 6 0
9 5 12 13 8 9 -5 9 -4 0 6 -10 11 -15 11 -29 -1 -10 -8 -15 -9 -11 -2 4 6 2
15 -3 18 -6 4 -10 19 -9 33 2 15 0 32 -4 38 -4 7 9 23 32 38 21 15 44 37 50
49 9 17 10 18 5 2 -4 -11 -11 -32 -17 -46 -13 -32 -2 -83 16 -73 7 4 3 -2 -7
-15 -18 -20 -18 -23 -4 -38 15 -15 18 -15 33 1 10 9 15 25 12 35 -2 10 -2 24
2 30 4 6 12 -8 18 -30 9 -36 8 -43 -8 -57 -10 -9 -19 -25 -19 -36 0 -20 15
-13 15 7 0 7 8 11 18 9 11 -2 15 2 11 13 -3 8 -1 15 5 15 6 0 11 -7 11 -15 0
-21 13 -19 38 8 17 18 21 33 18 80 -1 31 1 57 6 57 5 0 8 -15 7 -34 -2 -19 3
-42 11 -52 9 -11 10 -15 2 -10 -9 5 -11 -2 -7 -29 2 -19 7 -40 10 -45 3 -6 1
-10 -5 -10 -7 0 -14 9 -17 20 -9 32 -23 23 -23 -15 0 -38 -14 -47 -23 -14 -6
22 -27 18 -27 -5 0 -9 -9 -12 -27 -8 -25 5 -27 4 -14 -11 7 -10 20 -17 27 -17
8 0 13 -5 12 -11 -2 -6 4 -13 12 -15 8 -1 24 -6 36 -9 19 -6 20 -3 16 26 -3
22 -1 30 7 25 7 -5 9 -1 5 8 -7 17 11 22 21 6 3 -5 13 -7 23 -4 11 4 13 3 5
-3 -14 -10 -2 -35 13 -25 5 4 10 15 11 25 1 33 3 36 18 31 14 -6 20 6 16 29
-2 12 25 37 40 37 10 0 10 -3 2 -11 -9 -9 -9 -16 0 -30 10 -17 13 -17 29 -2
17 15 18 15 18 -6 0 -12 -4 -20 -9 -16 -5 3 -12 1 -16 -5 -3 -5 -1 -10 6 -10
6 0 18 -8 25 -17 12 -16 13 -13 14 25 0 26 4 41 10 37 6 -4 10 11 10 39 0 25
-5 48 -11 51 -15 10 -18 4 -21 -37 -2 -44 -28 -41 -28 3 0 16 -4 29 -9 29 -5
0 -14 13 -21 30 -7 17 -17 30 -23 30 -8 0 -7 4 0 11 9 9 16 8 28 -5 21 -20 25
-20 25 2 0 9 -11 30 -25 46 -22 25 -25 26 -26 10 -1 -10 -1 -25 0 -31 1 -7 -2
-13 -7 -13 -5 0 -12 -9 -15 -20 -3 -11 -1 -18 4 -14 5 3 6 -2 3 -10 -3 -9 -9
-16 -13 -16 -3 0 -5 -20 -3 -44 2 -25 -1 -53 -7 -63 -10 -15 -11 -13 -10 17 3
82 -1 110 -15 110 -11 0 -13 10 -9 40 3 23 2 40 -3 39 -23 -4 -45 2 -39 11 3
5 12 7 20 3 8 -3 15 0 15 6 0 6 -6 11 -14 11 -8 0 -20 17 -27 38 -6 20 -17 40
-23 45 -8 5 -7 10 3 16 18 12 39 4 44 -17 3 -12 5 -11 6 5 0 12 -3 24 -8 27
-5 3 -7 15 -4 26 4 16 9 18 24 9 22 -11 25 -3 5 16 -11 12 -18 10 -44 -8 -17
-12 -33 -34 -36 -49 -3 -16 -10 -28 -15 -28 -15 0 -32 37 -33 69 -1 23 -5 27
-19 24 -20 -6 -26 11 -9 22 15 10 40 -14 41 -39 1 -19 2 -19 6 -2 4 15 7 16
14 5 6 -10 9 -4 9 19 0 17 -4 32 -10 32 -5 0 -10 5 -10 10 0 18 22 10 27 -10
10 -39 29 -17 24 27 -1 6 3 14 9 18 6 3 10 -3 10 -16 0 -18 2 -19 15 -9 9 7
27 14 41 16 23 2 25 0 19 -24 -11 -45 -11 -47 8 -44 9 2 17 -2 17 -8 0 -5 -7
-10 -15 -10 -27 0 -16 -18 15 -25 25 -6 29 -9 19 -21 -8 -10 -8 -14 0 -14 15
0 14 -27 -1 -34 -7 -3 -4 -5 7 -3 13 1 21 13 26 35 3 17 3 32 -2 32 -15 0 -10
17 6 24 8 3 14 2 14 -2 -3 -21 3 -32 18 -32 15 0 15 2 -2 14 -18 13 -17 14 13
21 19 4 32 13 32 22 0 12 -2 12 -16 -1 -28 -29 -46 -20 -38 19 4 23 2 35 -5
35 -6 0 -11 14 -11 31 0 24 -4 30 -15 25 -8 -3 -15 0 -15 6 0 7 -4 7 -14 -1
-21 -17 -49 -2 -42 23 3 11 6 27 6 34 0 20 17 14 23 -8 4 -17 11 -20 34 -16
15 2 31 5 36 5 4 1 7 6 7 12 0 6 -7 9 -15 6 -8 -4 -17 -2 -21 4 -3 6 -12 8
-20 5 -8 -3 -14 -1 -14 4 0 16 18 20 44 10 17 -6 26 -6 26 0 0 6 -8 10 -19 10
-14 0 -17 6 -14 24 4 18 0 26 -16 31 -12 3 -21 13 -21 21 0 8 -4 14 -10 14
-22 0 -5 -33 23 -43 23 -9 22 -29 -4 -45 -28 -18 -53 1 -39 28 6 11 6 21 1 24
-4 3 -6 17 -3 31 6 31 -16 34 -23 3 -2 -13 -3 -37 -2 -54 2 -26 0 -30 -15 -26
-19 5 -26 32 -8 32 6 0 10 15 10 33 0 24 -5 34 -15 34 -11 0 -12 -4 -6 -10 7
-7 5 -20 -7 -39 -19 -33 -32 -36 -32 -8 0 14 5 18 18 14 14 -5 14 -3 -2 10
-11 9 -14 16 -8 16 9 0 10 5 2 19 -13 26 -13 31 4 25 7 -3 16 2 19 10 4 9 13
13 22 10 8 -4 15 -1 15 6 0 8 9 11 25 7 17 -3 24 0 22 7 -2 6 -11 10 -21 8
-19 -3 -22 14 -3 21 9 4 9 6 -1 6 -7 1 -11 5 -8 10 3 5 -4 11 -15 14 -17 5
-20 2 -15 -17 6 -26 -26 -60 -62 -63 -19 -2 -21 1 -11 18 10 19 11 20 23 3 12
-16 13 -16 20 2 4 10 3 20 -2 22 -6 2 1 15 14 29 28 30 30 39 10 46 -9 4 -13
1 -11 -6 6 -17 -11 -41 -23 -33 -6 3 -8 15 -5 26 4 14 0 20 -11 20 -10 0 -15
4 -12 8 3 5 -13 7 -34 5 -24 -2 -40 0 -40 6 0 6 11 11 25 11 31 0 34 29 5 37
-11 3 -20 9 -20 14 0 12 27 12 32 0 5 -14 48 -24 48 -11 0 7 6 6 15 -4 8 -8
15 -19 15 -24 0 -5 9 -17 20 -27 18 -16 20 -17 21 -2 2 25 4 31 12 45 5 7 4
12 -2 12 -6 0 -11 6 -11 13 0 8 -16 12 -47 11 -27 0 -51 5 -55 10 -5 7 -8 7
-8 -2 0 -9 -5 -10 -19 -2 -25 13 -34 13 -26 0 3 -6 -4 -10 -17 -10 l-23 0 24
-19 24 -18 -26 -6 c-15 -4 -27 -16 -31 -31 -6 -24 -41 -31 -41 -8 0 6 -4 14
-9 19 -5 4 -7 -1 -4 -14 5 -17 2 -20 -11 -17 -9 3 -5 -1 8 -9 15 -9 40 -13 65
-10 23 3 36 1 31 -4 -7 -5 -2 -16 12 -30 12 -12 25 -18 28 -12 11 16 36 10 33
-8 -5 -31 -21 -42 -35 -24 -11 14 -12 14 -13 -5 0 -12 -7 -21 -15 -21 -8 0
-15 6 -15 14 0 7 5 13 12 13 6 0 9 3 6 6 -4 3 -16 0 -28 -6 -17 -9 -24 -8 -38
7 -9 10 -14 15 -11 10 9 -12 -1 -47 -13 -47 -6 0 -8 9 -5 20 3 13 -1 24 -13
30 -21 11 -30 4 -29 -24 1 -19 2 -18 10 4 7 20 8 18 4 -11 -4 -27 -1 -38 10
-43 8 -3 15 -1 15 4 0 11 38 4 56 -10 7 -7 19 -8 26 -4 10 5 10 4 2 -5 -6 -7
-24 -13 -40 -15 -16 -2 -29 -8 -28 -15 4 -45 6 -54 11 -43 2 6 12 12 21 12 12
1 11 4 -7 14 l-24 13 26 5 c31 6 37 2 37 -24 0 -10 5 -18 11 -18 6 0 9 7 5 15
-12 31 12 13 29 -21 16 -34 14 -47 -6 -50 -22 -3 -23 -5 -9 -14 12 -7 12 -12
2 -22 -9 -9 -15 -9 -24 0 -16 16 -25 15 -32 -4 -4 -12 -1 -14 14 -9 17 5 20 2
20 -22 0 -35 14 -58 30 -48 9 5 9 2 -1 -12 -6 -11 -21 -19 -33 -18 -11 1 -25
-3 -29 -9 -5 -6 -5 -1 -2 11 3 13 3 28 -2 35 -4 7 -8 24 -9 38 -1 14 -2 28 -3
32 0 4 -14 5 -30 3 -21 -2 -28 0 -25 9 3 7 -4 21 -16 31 -20 18 -20 18 -6 -21
8 -23 19 -39 29 -39 20 0 43 -22 34 -32 -4 -4 -13 -1 -19 5 -17 17 -35 15 -42
-4 -4 -12 -1 -14 14 -9 14 5 20 2 20 -9 0 -15 -12 -21 -34 -17 -4 1 -15 -4
-24 -11 -13 -11 -14 -11 -7 1 6 11 4 13 -7 8 -27 -10 -28 4 -3 28 21 19 24 30
22 81 -2 59 -2 60 -30 56 -22 -4 -26 -1 -21 12 3 9 13 16 21 16 8 0 11 5 8 10
-4 6 -12 7 -18 3 -7 -4 -6 1 2 10 8 11 21 15 32 12 11 -4 19 -2 19 4 0 6 6 8
14 5 8 -3 17 -1 20 4 3 5 -2 9 -10 8 -9 0 -18 7 -19 16 -2 9 -10 27 -19 40
-13 19 -16 20 -16 5 0 -10 -4 -15 -10 -12 -5 3 -10 21 -10 38 1 29 2 30 14 14
12 -15 14 -15 19 -3 4 9 -1 20 -11 25 -15 9 -15 10 3 11 11 0 30 -6 41 -14 17
-12 22 -12 39 1 19 13 18 14 -10 7 -16 -4 -27 -3 -23 1 4 4 1 14 -7 22 -17 17
-19 33 -5 33 6 0 10 7 10 15 0 8 4 15 10 15 5 0 7 6 4 14 -3 9 -12 12 -22 8
-15 -5 -16 -4 -2 13 14 17 13 18 -2 12 -10 -3 -20 -2 -23 3 -7 11 19 13 64 4
17 -4 31 -13 31 -20 0 -8 5 -14 11 -14 6 0 9 7 6 15 -4 8 -2 17 4 21 5 3 7 14
4 25 -4 12 -2 19 5 17 7 -2 15 3 17 10 4 11 1 12 -15 3 -15 -8 -23 -8 -28 0
-4 8 -9 7 -16 -2 -7 -10 -8 -9 -4 5 4 10 2 24 -3 30 -12 14 -3 56 11 56 5 0 7
-4 4 -9 -10 -15 6 -43 20 -37 8 3 14 1 14 -4 0 -6 -4 -10 -10 -10 -5 0 -10 -3
-10 -8 0 -4 16 -7 35 -6 23 1 39 -4 46 -15 7 -12 12 -13 15 -3 6 13 44 17 44
4 0 -4 -5 -13 -12 -20 -8 -8 -2 -10 25 -5 21 3 37 1 37 -4 0 -5 7 -10 15 -10
8 0 15 4 15 9 0 4 9 8 20 8 26 0 26 -20 0 -27 -26 -7 -21 -23 9 -35 21 -7 23
-6 17 17 -7 26 -3 28 59 28 44 0 55 -3 55 -13 0 -7 -14 -9 -37 -5 -31 4 -34 3
-15 -4 12 -6 22 -17 22 -25 0 -8 3 -21 6 -30 4 -11 1 -16 -10 -16 -10 0 -16 8
-16 22 0 33 -12 13 -16 -26 -2 -20 1 -38 7 -41 5 -4 9 4 9 17 1 22 1 22 15 4
13 -17 15 -17 15 -4 0 9 5 20 10 23 6 4 9 1 8 -6 -4 -17 33 -18 54 -1 12 10
18 11 23 1 5 -7 -1 -18 -14 -28 -14 -10 -18 -20 -12 -26 5 -6 12 -21 14 -35 4
-19 5 -16 5 10 0 52 1 55 14 42 14 -14 20 -45 8 -37 -5 3 -8 -3 -7 -14 1 -11
6 -17 14 -14 10 4 12 -2 8 -26 -3 -17 -1 -31 4 -31 5 0 12 15 14 33 3 25 4 21
5 -15 2 -42 6 -49 32 -63 27 -14 29 -14 23 2 -5 12 -2 15 10 10 13 -5 17 -1
17 16 0 16 -3 18 -9 8 -6 -10 -10 -10 -16 -1 -5 8 -12 7 -25 -5 -18 -16 -18
-15 -16 20 4 47 -3 77 -17 68 -6 -4 -7 -1 -3 6 5 7 0 21 -10 32 -13 15 -14 19
-3 19 10 1 9 4 -3 14 -10 7 -18 16 -18 20 0 3 8 6 18 7 14 0 14 2 -3 9 -16 7
-16 9 -4 9 9 1 19 8 23 16 4 12 11 13 32 5 l27 -11 -17 26 c-17 25 -13 51 5
40 5 -4 9 1 9 9 0 8 5 18 12 22 6 4 8 3 5 -3 -4 -6 1 -14 11 -18 14 -5 12 -9
-13 -20 -26 -12 -27 -13 -8 -14 12 -1 25 4 28 10 4 5 18 9 32 7 21 -3 27 3 38
35 7 22 23 48 34 58 12 11 21 25 21 31 0 7 -7 3 -16 -8 -14 -18 -15 -18 -8 6
3 14 24 69 45 123 22 53 39 106 39 118 0 11 7 22 15 25 22 9 19 35 -2 28 -17
-5 -17 -5 0 6 19 12 41 5 32 -11 -4 -5 3 -9 15 -9 12 0 18 4 15 11 -4 6 1 17
11 25 18 14 18 15 -1 6 -25 -11 -48 -4 -38 11 3 7 -3 4 -14 -6 -25 -22 -39 -7
-23 24 7 11 9 23 6 27 -12 11 -46 9 -57 -5 -9 -9 -8 -13 0 -13 7 0 9 -5 6 -10
-4 -7 -12 -7 -24 0 -10 5 -33 8 -50 7 -25 -2 -28 -4 -16 -13 12 -9 3 -12 -43
-17 -58 -6 -98 -1 -118 14 -6 5 -13 7 -15 4 -3 -2 -26 2 -52 10 -26 8 -45 10
-42 5 7 -12 -20 -11 -55 1 -23 8 -22 8 8 5 17 -1 32 1 32 6 0 4 -3 8 -7 8 -5
0 -167 2 -361 3 l-352 2 -6 -30 c-3 -16 -6 -38 -8 -47 -5 -36 -18 -31 -14 5 2
20 0 37 -4 37 -4 0 -8 5 -8 11 0 5 6 7 13 3 9 -6 8 -3 -1 8 -12 15 -34 16
-165 12 -84 -2 -156 -5 -162 -5 -5 -1 -14 0 -20 1 -5 1 -39 2 -74 1 -64 -1
-64 -1 -46 -21 10 -11 16 -23 13 -26 -3 -3 -15 6 -26 20 -20 26 -42 34 -42 17
0 -6 5 -13 10 -16 6 -3 10 -16 10 -28 0 -37 -23 -3 -29 44 -1 3 -7 6 -13 6 -7
0 -17 2 -23 3 -5 1 -21 2 -35 1 l-26 -1 8 -85 c4 -51 3 -96 -2 -111 -6 -14
-10 -39 -10 -55 0 -18 -5 -29 -14 -29 -22 0 -28 47 -10 81 10 21 13 40 8 58
-4 14 -6 30 -5 35 4 18 -12 111 -17 97 -3 -10 -6 -11 -12 -1 -8 12 -79 21 -85
10z m85 -92 c-1 -15 -40 61 -40 76 0 6 9 -6 20 -27 11 -20 20 -43 20 -49z
m114 55 c4 -9 4 -18 1 -21 -2 -3 -7 3 -11 12 -3 9 -10 16 -16 16 -5 0 -6 -6
-2 -12 5 -10 4 -10 -6 -1 -7 6 -9 16 -6 22 9 13 33 4 40 -16z m1231 4 c33 -3
61 -10 63 -16 2 -5 14 -6 30 -2 15 5 38 4 52 -2 21 -8 109 -15 212 -17 l26 0
-18 -47 c-35 -95 -40 -103 -57 -104 -17 -1 -17 -2 0 -6 11 -3 16 -10 13 -20
-3 -8 -6 -19 -6 -24 0 -5 -9 -9 -20 -9 -11 0 -20 -4 -20 -10 0 -5 7 -7 15 -4
19 8 19 -5 0 -26 -10 -11 -25 -15 -40 -12 -31 6 -33 22 -2 23 l22 0 -22 9
c-13 5 -23 17 -23 27 0 15 -2 15 -15 -3 -13 -17 -14 -17 -15 -2 0 9 5 20 10
23 6 3 10 15 10 26 0 22 11 24 28 7 17 -17 15 -31 -4 -24 -8 3 -12 2 -9 -4 3
-6 15 -10 26 -10 11 0 18 4 15 9 -3 4 1 17 9 27 8 10 14 26 15 34 0 13 -1 13
-10 0 -8 -13 -10 -12 -10 3 0 9 5 17 11 17 5 0 7 5 4 10 -4 6 -12 5 -21 -4 -8
-9 -22 -12 -31 -9 -11 4 -14 3 -9 -5 4 -7 3 -12 -2 -12 -6 0 -13 7 -16 16 -5
13 -9 14 -21 4 -8 -7 -15 -8 -15 -3 0 6 -22 13 -50 17 -52 7 -68 19 -51 39 6
8 6 18 1 27 -6 8 -10 11 -11 5 -1 -5 -3 -14 -4 -20 -2 -5 -3 -17 -4 -27 -1
-10 -8 -15 -18 -13 -10 2 -27 4 -38 5 -18 2 -17 3 3 8 20 6 32 22 17 22 -3 0
-17 0 -31 0 -14 0 -23 -4 -19 -10 11 -17 -15 -11 -45 12 -17 12 -30 30 -30 40
0 10 -7 21 -15 24 -25 10 -6 25 22 18 21 -6 24 -4 18 7 -7 11 -6 12 6 3 8 -6
41 -14 74 -17z m489 1 c-4 -13 -7 -29 -7 -35 0 -7 -4 -13 -8 -13 -5 0 -5 -7
-2 -17 4 -11 3 -14 -5 -9 -14 8 -16 46 -3 46 5 0 12 11 15 25 4 14 9 25 12 25
3 0 2 -10 -2 -22z m-1347 -25 c-3 -10 -5 -4 -5 12 0 17 2 24 5 18 2 -7 2 -21
0 -30z m243 6 c0 -17 -4 -28 -10 -24 -11 7 -9 55 2 55 4 0 8 -14 8 -31z m-278
-19 c4 -45 -7 -41 -17 8 -4 19 -3 32 3 32 6 0 12 -18 14 -40z m199 -66 c6 -12
9 -32 6 -45 -4 -20 -5 -19 -6 7 0 17 -7 37 -15 43 -9 8 -13 27 -11 54 4 58 8
60 12 7 2 -25 8 -54 14 -66z m-372 46 c0 -14 -4 -34 -9 -45 -6 -14 -9 -3 -9
40 -1 42 2 56 9 45 5 -8 9 -26 9 -40z m286 40 c3 -5 1 -10 -4 -10 -6 0 -11 5
-11 10 0 6 2 10 4 10 3 0 8 -4 11 -10z m1225 -1 c0 -6 -6 -17 -14 -24 -12 -12
-15 -12 -20 1 -4 10 -2 13 6 8 8 -5 9 -2 5 9 -4 11 -1 17 8 17 8 0 15 -5 15
-11z m-1634 -60 c9 -19 13 -41 9 -59 -3 -16 -2 -31 4 -35 14 -8 14 -45 1 -45
-5 0 -10 5 -10 11 0 5 -4 7 -10 4 -6 -4 -9 17 -9 52 0 32 -4 71 -10 86 -14 37
4 26 25 -14z m-219 -1 c-3 -8 -6 -5 -6 6 -1 11 2 17 5 13 3 -3 4 -12 1 -19z
m164 10 c1 -7 3 -23 4 -35 1 -13 -2 -23 -6 -23 -5 0 -9 9 -9 19 0 11 -3 26 -6
35 -3 9 -1 16 5 16 6 0 12 -6 12 -12z m475 -89 c3 -66 2 -90 -5 -79 -6 8 -11
11 -11 5 0 -5 -7 1 -15 15 -8 14 -14 46 -15 73 0 49 14 66 18 20 3 -37 12 -42
12 -7 0 17 -6 36 -12 43 -10 11 -10 13 0 7 7 -5 12 -1 12 10 0 10 2 15 5 12 3
-3 8 -48 11 -99z m224 67 c0 -14 -4 -27 -9 -30 -4 -3 -8 8 -7 24 1 36 16 41
16 6z m960 4 c0 -5 -5 -10 -11 -10 -5 0 -7 5 -4 10 3 6 8 10 11 10 2 0 4 -4 4
-10z m-1249 -130 c5 0 9 -29 9 -64 0 -48 -4 -65 -15 -70 -8 -3 -15 -15 -15
-27 0 -31 -8 -20 -15 21 -3 22 -2 30 3 22 12 -17 18 -3 27 60 6 36 4 46 -9 51
-17 7 -22 61 -8 94 5 12 8 1 10 -34 2 -29 7 -53 13 -53z m246 68 c-3 -8 -6 -5
-6 6 -1 11 2 17 5 13 3 -3 4 -12 1 -19z m-12 -41 c8 -31 8 -54 -1 -87 -10 -36
-21 -34 -15 2 5 32 3 98 -4 118 -4 14 -4 21 1 17 5 -4 13 -27 19 -50z m126 33
c10 0 21 -5 24 -10 8 -14 -4 -52 -15 -45 -5 3 -11 -1 -14 -7 -3 -7 -4 -4 -3 7
2 11 9 19 15 18 7 -2 12 3 12 11 0 21 -34 14 -40 -8 -5 -17 -7 -16 -18 8 -9
20 -9 25 0 20 8 -5 9 -2 4 12 -6 15 -5 17 5 7 7 -7 21 -13 30 -13z m-521 -11
c0 -6 -4 -7 -10 -4 -5 3 -10 11 -10 16 0 6 5 7 10 4 6 -3 10 -11 10 -16z m437
-1 c-3 -8 -6 -5 -6 6 -1 11 2 17 5 13 3 -3 4 -12 1 -19z m187 16 c23 -9 20
-23 -4 -21 -11 1 -20 7 -20 14 0 15 2 15 24 7z m40 -29 c3 -8 1 -15 -4 -15 -6
0 -10 7 -10 15 0 8 2 15 4 15 2 0 6 -7 10 -15z m463 -2 c-9 -9 -20 -13 -24 -9
-4 4 -1 11 7 16 25 16 35 11 17 -7z m-547 -3 c0 -5 -5 -10 -11 -10 -5 0 -7 5
-4 10 3 6 8 10 11 10 2 0 4 -4 4 -10z m-245 -27 c-11 -24 -12 -29 -14 -53 0
-11 -5 -20 -9 -20 -4 0 -6 16 -4 35 2 19 8 35 13 35 5 0 9 8 9 17 0 9 3 14 6
10 4 -3 3 -14 -1 -24z m260 7 c-3 -5 -14 -10 -23 -9 -14 0 -13 2 3 9 27 11 27
11 20 0z m120 -28 c-8 -8 -25 10 -25 26 0 13 2 13 14 -4 8 -10 13 -21 11 -22z
m45 23 c0 -8 -4 -15 -10 -15 -5 0 -10 7 -10 15 0 8 5 15 10 15 6 0 10 -7 10
-15z m53 4 c-8 -8 -16 -8 -30 0 -16 9 -14 10 12 11 21 0 26 -3 18 -11z m40 -8
c-6 -22 -29 -35 -38 -21 -4 6 1 10 10 10 9 0 14 4 11 9 -4 5 0 12 6 14 7 3 14
6 15 6 0 1 -1 -8 -4 -18z m337 9 c-8 -5 -19 -10 -25 -10 -5 0 -3 5 5 10 8 5
20 10 25 10 6 0 3 -5 -5 -10z m-88 -27 c6 -16 11 -46 9 -68 -2 -40 -2 -40 14
-17 9 13 14 29 11 37 -3 8 -2 17 3 19 4 3 14 -17 21 -44 7 -27 17 -47 22 -44
4 3 1 18 -7 35 -9 16 -11 29 -5 29 5 0 10 -5 10 -11 0 -6 7 -8 16 -5 13 5 15
2 11 -15 -4 -15 -2 -19 9 -15 16 6 18 -3 4 -24 -6 -10 -10 -11 -10 -2 0 6 -5
12 -11 12 -6 0 -9 -8 -7 -17 3 -10 -3 -34 -12 -53 -10 -19 -15 -41 -13 -47 3
-7 -2 -13 -11 -13 -9 0 -16 -7 -16 -15 0 -26 -15 -17 -40 24 -14 21 -27 37
-30 36 -3 -2 -7 10 -8 26 -2 19 2 28 8 24 5 -3 10 3 10 14 0 23 16 29 22 9 3
-9 6 -9 12 0 4 7 -3 14 -19 18 -13 3 -23 10 -20 14 3 4 -12 4 -32 0 -20 -5
-41 -6 -45 -4 -5 3 -16 0 -25 -8 -12 -9 -15 -9 -9 0 4 8 1 12 -9 12 -12 0 -15
-5 -11 -17 6 -16 6 -16 -11 0 -18 15 -19 15 -21 -13 -1 -16 2 -31 8 -35 18
-11 11 -25 -12 -25 -14 0 -18 3 -11 8 13 8 -17 52 -37 52 -7 0 -21 11 -32 25
-11 14 -24 22 -30 19 -6 -4 -8 -2 -5 3 10 15 61 10 78 -7 8 -8 16 -24 17 -35
6 -33 14 -33 12 0 -4 53 0 75 11 75 6 0 8 -7 5 -16 -4 -10 -1 -14 6 -12 7 3
15 13 17 24 4 23 51 72 51 54 0 -7 7 -10 15 -6 19 7 19 -4 0 -31 -15 -21 -14
-21 15 -13 23 7 30 5 30 -6 0 -8 9 -14 20 -14 11 0 20 4 20 10 0 5 -6 7 -14 4
-8 -3 -16 4 -20 18 -5 19 -8 20 -15 8 -6 -8 -14 -11 -18 -6 -4 4 1 14 11 22
17 12 22 12 39 -4 19 -16 20 -16 15 11 -3 15 -3 27 -1 27 2 0 9 -12 15 -27z
m-1323 -23 c0 -10 -3 -8 -9 5 -12 27 -12 43 0 25 5 -8 9 -22 9 -30z m138 -59
c-13 -5 -14 1 -8 54 l5 50 6 -50 c3 -27 1 -52 -3 -54z m713 95 c0 -3 -4 -8
-10 -11 -5 -3 -10 -1 -10 4 0 6 5 11 10 11 6 0 10 -2 10 -4z m320 -3 c-1 -19
-50 -55 -50 -36 0 9 33 42 43 42 4 1 7 -2 7 -6z m-300 -17 c0 -2 -7 -7 -16
-10 -8 -3 -12 -2 -9 4 6 10 25 14 25 6z m530 -24 c0 -15 -2 -15 -10 -2 -13 20
-13 33 0 25 6 -3 10 -14 10 -23z m-454 -22 c2 -24 -2 -30 -17 -30 -13 0 -19 7
-18 23 0 12 3 16 6 10 7 -18 23 -16 23 2 0 8 -5 15 -11 15 -5 0 -7 5 -4 11 10
15 19 3 21 -31z m131 18 c-3 -8 -6 -5 -6 6 -1 11 2 17 5 13 3 -3 4 -12 1 -19z
m363 3 c0 -12 -20 -25 -27 -18 -7 7 6 27 18 27 5 0 9 -4 9 -9z m-565 -109 c-3
-3 -5 2 -5 11 0 10 -4 17 -9 17 -4 0 -6 12 -3 28 5 26 6 25 14 -12 5 -21 6
-41 3 -44z m149 46 c17 2 18 1 6 -7 -23 -16 -33 -13 -54 17 l-20 27 23 -20
c13 -11 33 -19 45 -17z m-964 18 c0 -3 -4 -8 -10 -11 -5 -3 -10 -1 -10 4 0 6
5 11 10 11 6 0 10 -2 10 -4z m827 -18 c-3 -8 -6 -5 -6 6 -1 11 2 17 5 13 3 -3
4 -12 1 -19z m587 6 c3 -9 2 -23 -4 -32 -8 -15 -9 -15 -10 4 0 11 -5 25 -12
32 -9 9 -8 12 4 12 9 0 19 -7 22 -16z m-636 -19 c-3 -13 0 -26 6 -29 6 -2 2
-5 -9 -5 -17 -1 -17 -3 -5 -11 10 -7 11 -10 2 -10 -7 0 -15 6 -18 14 -3 9 -12
12 -21 9 -11 -4 -14 -2 -9 5 4 7 16 12 28 12 15 0 19 5 15 20 -3 11 -1 20 5
20 6 0 8 -11 6 -25z m-666 -14 c2 -15 -2 -33 -9 -40 -10 -9 -13 -9 -14 4 -3
28 -4 33 -11 41 -13 12 -9 20 11 21 13 1 20 -6 23 -26z m778 -6 c0 -5 -5 -3
-10 5 -5 8 -10 20 -10 25 0 6 5 3 10 -5 5 -8 10 -19 10 -25z m340 15 c0 -5 -7
-10 -16 -10 -12 0 -15 -7 -12 -25 3 -14 2 -25 -3 -25 -12 0 -15 44 -4 57 12
15 35 17 35 3z m-285 -38 c-8 -8 -45 -13 -45 -7 0 3 6 12 13 19 8 10 16 11 25
4 7 -6 10 -13 7 -16z m85 8 c0 -5 -2 -10 -4 -10 -3 0 -8 5 -11 10 -3 6 -1 10
4 10 6 0 11 -4 11 -10z m-1054 -85 c15 -23 18 -132 3 -140 -20 -13 -36 10 -45
63 -10 63 -8 95 7 87 5 -4 10 13 11 37 1 39 2 40 5 9 3 -19 11 -44 19 -56z
m574 75 c0 -5 -4 -10 -9 -10 -6 0 -13 5 -16 10 -3 6 1 10 9 10 9 0 16 -4 16
-10z m274 -15 c3 -10 -1 -15 -14 -15 -12 0 -18 -6 -17 -19 0 -11 5 -17 9 -15
5 3 5 10 2 16 -4 6 -1 9 6 6 7 -2 16 -13 20 -24 7 -17 3 -19 -42 -19 -48 0
-49 0 -46 30 2 18 9 30 18 31 35 2 41 5 35 14 -3 6 0 10 8 10 8 0 17 -7 21
-15z m-569 -5 c3 -5 1 -10 -4 -10 -6 0 -11 5 -11 10 0 6 2 10 4 10 3 0 8 -4
11 -10z m478 2 c-6 -4 -10 -20 -9 -35 2 -15 -1 -27 -5 -27 -5 0 -9 9 -9 19 0
11 -2 26 -5 33 -4 9 2 14 17 15 13 1 18 -1 11 -5z m444 -24 c-16 -10 -21 -2
-13 19 6 15 9 15 16 3 6 -9 5 -17 -3 -22z m-1307 -33 c9 -16 15 -39 12 -51 -2
-12 1 -25 7 -28 6 -4 11 -19 11 -33 0 -26 -9 -27 -14 -1 -18 77 -18 79 -39 72
-12 -4 -17 -2 -13 4 3 6 2 13 -4 17 -5 3 -10 12 -10 18 0 7 7 3 15 -7 21 -27
27 -16 10 18 -20 38 4 29 25 -9z m1520 15 c0 -24 -15 -27 -24 -4 -3 8 -2 12 4
9 6 -3 10 -1 10 4 0 6 2 11 5 11 3 0 5 -9 5 -20z m-711 -34 c-9 -8 -10 -7 -5
7 3 10 7 24 7 30 1 7 3 4 6 -7 3 -10 -1 -23 -8 -30z m816 34 c-3 -5 -10 -10
-16 -10 -5 0 -9 5 -9 10 0 6 7 10 16 10 8 0 12 -4 9 -10z m-885 -11 c0 -5 -4
-8 -8 -5 -5 3 -7 -18 -4 -47 6 -67 -3 -59 -12 11 -6 43 -4 52 9 52 8 0 15 -5
15 -11z m254 -4 c-4 -8 -10 -12 -15 -9 -14 8 -10 24 6 24 9 0 12 -6 9 -15z
m-241 -35 c3 -11 1 -18 -4 -14 -5 3 -9 12 -9 20 0 20 7 17 13 -6z m120 7 c7 4
8 0 4 -11 -4 -10 -7 -20 -7 -22 0 -2 -4 -4 -10 -4 -5 0 -7 7 -4 15 4 8 1 15
-6 15 -6 0 -8 5 -4 12 6 9 9 9 12 0 2 -7 9 -9 15 -5z m630 -6 c-5 -20 -31 -36
-41 -26 -6 6 27 45 39 45 4 0 5 -9 2 -19z m-1103 -16 c7 -9 8 -15 2 -15 -5 0
-12 7 -16 15 -3 8 -4 15 -2 15 2 0 9 -7 16 -15z m784 -1 c10 -25 1 -27 -19 -4
-15 17 -16 20 -3 20 9 0 19 -7 22 -16z m-292 -16 c-7 -7 -12 -8 -12 -2 0 14
12 26 19 19 2 -3 -1 -11 -7 -17z m-216 -65 c8 -3 14 -10 14 -16 0 -5 -9 -2
-20 8 -14 12 -19 29 -18 54 l1 36 4 -38 c2 -21 11 -41 19 -44z m745 64 c-1 -4
-1 -13 -1 -20 0 -8 -7 -14 -15 -14 -16 0 -18 7 -9 32 6 15 26 17 25 2z m-951
-43 c0 -7 7 -17 16 -22 14 -8 17 -29 18 -121 0 -61 -2 -119 -6 -129 -4 -11 -7
-5 -7 18 -1 19 -6 42 -11 50 -8 11 -10 4 -8 -27 2 -49 -8 -67 -17 -30 -4 14
-1 52 6 84 14 69 14 120 -2 139 -6 7 -8 22 -4 34 4 11 2 20 -4 20 -6 0 -11 5
-11 11 0 8 5 8 15 -1 8 -7 15 -18 15 -26z m-58 -31 c11 -12 17 -26 14 -32 -4
-5 -2 -12 4 -16 5 -3 9 -27 8 -53 l-1 -47 -4 40 c-3 22 -9 46 -15 53 -6 7 -8
15 -5 19 4 3 -3 17 -13 31 -11 13 -20 32 -19 41 0 13 1 14 6 1 3 -8 14 -25 25
-37z m623 27 c3 -5 -3 -10 -15 -10 -12 0 -18 5 -15 10 3 6 10 10 15 10 5 0 12
-4 15 -10z m68 -13 c3 -8 2 -20 -3 -27 -6 -10 -9 -9 -13 1 -4 12 -7 11 -16 -1
-9 -13 -11 -13 -11 1 0 15 18 39 31 39 4 0 9 -6 12 -13z m-213 -7 c13 -8 13
-10 -2 -10 -9 0 -25 -3 -35 -7 -16 -6 -16 -5 -4 10 16 20 20 20 41 7z m-288
-73 c26 -13 27 -16 8 -11 -37 9 -60 34 -59 63 1 25 1 25 10 -5 5 -19 21 -36
41 -47z m-622 7 c0 -22 6 -33 18 -36 18 -5 27 -38 10 -38 -4 0 -8 7 -8 16 0 8
-5 12 -11 9 -6 -4 -8 -13 -5 -21 3 -8 1 -14 -4 -14 -6 0 -10 3 -11 8 0 4 -2
17 -3 29 -3 30 -16 42 -17 17 -1 -15 -3 -13 -9 6 -4 14 -8 34 -9 45 0 18 0 19
10 2 14 -23 31 -11 24 16 -5 17 -4 19 4 7 6 -8 11 -29 11 -46z m801 39 c13
-16 12 -17 -3 -4 -17 13 -22 21 -14 21 2 0 10 -8 17 -17z m-527 -15 c10 -38 6
-45 -9 -18 -17 29 -18 40 -6 40 5 0 11 -10 15 -22z m-238 -4 c-3 -9 -6 -23 -7
-32 0 -13 -2 -13 -8 3 -9 23 -4 45 11 45 6 0 7 -7 4 -16z m709 -12 c15 -18 16
-22 3 -17 -11 4 -18 0 -21 -12 -3 -10 -5 0 -6 21 0 22 0 37 2 35 1 -2 11 -14
22 -27z m124 -15 c0 -27 -2 -29 -9 -12 -12 28 -12 57 0 50 6 -3 10 -21 9 -38z
m-624 12 c11 -17 -1 -21 -15 -4 -8 9 -8 15 -2 15 6 0 14 -5 17 -11z m534 -52
c0 -9 -2 -9 -5 0 -3 7 -12 9 -20 6 -7 -3 -12 -9 -9 -13 6 -10 -14 -25 -21 -17
-3 3 4 15 16 27 21 21 41 19 39 -3z m68 -49 c-2 -13 -4 -5 -4 17 -1 22 1 32 4
23 2 -10 2 -28 0 -40z m244 19 c-10 -9 -11 -8 -5 6 3 10 9 15 12 12 3 -3 0
-11 -7 -18z m-198 6 c8 -7 -11 -33 -23 -33 -5 0 -6 9 -3 20 5 20 15 25 26 13z
m-656 -35 c-3 -8 -6 -5 -6 6 -1 11 2 17 5 13 3 -3 4 -12 1 -19z m96 -33 c3 11
5 -5 4 -35 -1 -31 -6 -54 -12 -53 -10 3 -11 9 -19 98 l-4 50 12 -40 c11 -32
14 -36 19 -20z m357 8 c0 -7 -10 -23 -21 -34 -12 -12 -25 -33 -29 -48 l-8 -26
-1 26 c-1 14 8 34 19 44 12 11 20 31 20 49 0 24 3 27 10 16 5 -8 10 -21 10
-27z m-134 -62 c4 -19 7 -22 14 -11 11 18 16 13 23 -28 4 -21 3 -31 -3 -27 -6
3 -10 13 -10 21 0 8 -5 12 -10 9 -6 -4 -8 -16 -4 -28 4 -16 3 -19 -5 -12 -6 6
-13 44 -15 85 -2 41 -2 62 0 45 3 -16 7 -41 10 -54z m574 85 c0 -3 -4 -8 -10
-11 -5 -3 -10 -1 -10 4 0 6 5 11 10 11 6 0 10 -2 10 -4z m-660 -113 c0 -7 -5
-13 -11 -13 -5 0 -8 4 -5 8 2 4 -4 27 -15 51 -10 24 -19 46 -19 50 1 10 49
-83 50 -96z m280 77 c-17 -31 -23 -149 -9 -166 7 -8 7 -14 1 -14 -18 0 -33 28
-32 61 1 19 -1 43 -5 55 -4 14 2 30 20 52 31 37 41 41 25 12z m-150 -20 c-6
-12 -14 -20 -17 -17 -2 3 1 14 8 26 17 26 24 19 9 -9z m-506 -97 c3 -45 1 -85
-4 -88 -12 -7 -20 39 -19 109 1 32 -3 61 -7 65 -5 3 -10 13 -12 21 -2 11 2 9
17 -5 15 -16 21 -38 25 -102z m-197 85 c-3 -8 -6 -5 -6 6 -1 11 2 17 5 13 3
-3 4 -12 1 -19z m314 -19 c23 -23 31 -24 27 -3 -2 10 2 19 7 21 17 5 15 -35
-1 -41 -9 -3 -13 -10 -9 -15 3 -5 1 -12 -4 -16 -6 -3 -7 -13 -4 -23 6 -15 5
-15 -11 -3 -10 8 -15 23 -12 33 2 11 -1 21 -8 24 -7 3 -13 19 -13 37 -1 18 2
26 4 18 3 -7 14 -22 24 -32z m-74 -1 c-3 -8 -6 -5 -6 6 -1 11 2 17 5 13 3 -3
4 -12 1 -19z m-207 -31 c0 -5 -4 -5 -10 -2 -5 3 -10 14 -10 23 0 15 2 15 10 2
5 -8 10 -19 10 -23z m450 -27 c0 -56 14 -82 23 -42 4 18 21 -38 30 -99 4 -26
1 -36 -8 -36 -8 0 -12 4 -9 9 3 5 0 15 -6 23 -10 12 -10 15 1 15 8 0 6 5 -6
13 -12 9 -15 19 -10 28 5 8 5 11 0 7 -5 -5 -14 1 -21 11 -15 20 -17 131 -3
131 5 0 9 -27 9 -60z m518 1 c-7 -34 -32 -16 -35 24 l-3 40 20 -24 c12 -13 19
-31 18 -40z m308 53 c12 -2 24 -13 27 -25 4 -16 2 -19 -11 -14 -9 4 -24 8 -32
9 -8 0 -18 5 -21 10 -10 13 -29 -2 -23 -18 7 -18 -8 -27 -26 -15 -13 8 -13 10
-1 18 7 5 11 13 7 19 -10 17 31 25 80 16z m-1276 -54 c0 -5 -5 -10 -11 -10 -5
0 -7 5 -4 10 3 6 8 10 11 10 2 0 4 -4 4 -10z m1292 -2 c5 -15 -13 -68 -24 -68
-7 0 -8 60 -1 73 7 11 21 8 25 -5z m-413 -5 c-1 -5 -1 -14 0 -22 1 -12 4 -11
14 3 8 11 19 15 30 10 19 -7 23 -24 6 -24 -5 0 -8 -4 -5 -8 11 -18 -35 -4 -54
16 -24 25 -25 32 -5 32 8 0 14 -3 14 -7z m-849 -35 c-1 -28 -2 -30 -11 -15 -6
10 -8 25 -5 33 9 24 16 16 16 -18z m82 -108 c2 -10 -1 -20 -7 -20 -14 -1 -29
102 -20 136 7 26 9 21 16 -34 4 -34 9 -71 11 -82z m288 116 c0 -13 3 -31 6
-40 4 -10 1 -16 -7 -16 -7 0 -10 2 -7 6 3 3 2 21 -2 40 -4 19 -4 34 1 34 5 0
9 -11 9 -24z m330 4 c-10 -6 -11 -10 -2 -10 6 0 12 -4 12 -9 0 -15 -30 -22
-48 -11 -16 9 -16 9 -1 10 9 0 19 7 23 15 3 8 11 15 18 15 9 0 8 -3 -2 -10z
m110 6 c0 -2 -7 -7 -16 -10 -8 -3 -12 -2 -9 4 6 10 25 14 25 6z m348 -18 c20
-20 14 -29 -15 -22 -36 9 -40 13 -23 24 20 13 24 12 38 -2z m182 -23 c0 -14 5
-25 10 -25 6 0 10 -4 10 -8 0 -11 -46 -9 -57 2 -5 5 -3 6 5 2 8 -5 12 0 12 13
0 12 -6 21 -12 21 -9 0 -8 4 2 10 23 15 30 12 30 -15z m-761 -15 c-6 -16 -15
-30 -20 -30 -13 0 -11 17 3 40 19 30 28 24 17 -10z m208 -40 c-3 -22 -1 -40 4
-40 5 0 9 -10 8 -22 0 -13 1 -32 3 -43 2 -14 -3 -20 -17 -20 -12 0 -21 8 -23
20 -3 17 -1 18 8 5 9 -12 10 -9 5 15 -8 32 -8 33 -1 85 6 43 5 40 12 40 4 0 4
-18 1 -40z m267 28 c-10 -17 -5 -82 7 -86 11 -4 12 -42 1 -42 -4 0 -18 7 -30
16 -20 14 -22 14 -22 0 0 -9 -6 -16 -13 -16 -20 0 -37 22 -36 45 1 14 3 15 6
4 2 -11 16 -15 42 -15 28 0 37 4 34 13 -3 7 -11 13 -19 13 -7 0 -19 10 -25 23
-7 12 -17 25 -23 29 -6 5 -1 8 13 8 16 0 21 -4 18 -14 -5 -13 10 -36 24 -36 3
0 5 12 3 27 -1 15 3 31 9 35 17 11 19 10 11 -4z m-412 -20 c-7 -7 -12 -8 -12
-2 0 14 12 26 19 19 2 -3 -1 -11 -7 -17z m-496 -140 c-12 -20 -22 -23 -31 -8
-3 6 1 10 9 10 17 0 22 15 8 24 -11 6 -15 93 -5 109 4 6 12 -16 19 -53 8 -47
8 -69 0 -82z m146 55 c6 -7 13 -11 17 -9 4 3 13 -4 19 -15 12 -18 10 -19 -15
-13 -16 4 -31 9 -35 13 -8 8 -12 47 -8 86 3 26 4 25 7 -10 3 -22 9 -45 15 -52z
m88 66 c0 -5 -4 -9 -10 -9 -5 0 -10 7 -10 16 0 8 5 12 10 9 6 -3 10 -10 10
-16z m-160 1 c0 -5 -2 -10 -4 -10 -3 0 -8 5 -11 10 -3 6 -1 10 4 10 6 0 11 -4
11 -10z m1147 -12 c-3 -8 -6 -5 -6 6 -1 11 2 17 5 13 3 -3 4 -12 1 -19z
m-1423 -4 c3 -8 2 -12 -4 -9 -6 3 -10 10 -10 16 0 14 7 11 14 -7z m656 -20 c0
-2 -9 0 -20 6 -11 6 -20 13 -20 16 0 2 9 0 20 -6 11 -6 20 -13 20 -16z m-371
-16 c-1 -31 -1 -31 -8 -8 -5 14 -6 28 -4 33 9 15 13 6 12 -25z m151 17 c0 -8
-2 -15 -4 -15 -2 0 -6 7 -10 15 -3 8 -1 15 4 15 6 0 10 -7 10 -15z m296 0
c-24 -18 -52 -19 -62 -3 -4 6 -3 8 3 5 5 -3 23 -2 39 3 40 12 42 11 20 -5z
m264 6 c0 -5 -7 -14 -15 -21 -10 -9 -15 -9 -15 -1 0 6 6 11 13 12 6 0 3 4 -8
9 -19 8 -19 9 3 9 12 1 22 -3 22 -8z m-316 -82 c15 -31 20 -51 14 -55 -6 -4
-14 0 -19 7 -7 11 -9 11 -9 -2 0 -9 3 -19 7 -23 11 -11 14 -48 3 -41 -15 9
-32 85 -26 111 3 12 2 26 -4 29 -5 3 -10 13 -10 21 0 25 20 5 44 -47z m486 41
c0 -5 -4 -10 -9 -10 -6 0 -13 5 -16 10 -3 6 1 10 9 10 9 0 16 -4 16 -10z
m-1097 -42 c13 -31 13 -36 1 -31 -8 3 -14 9 -14 15 0 5 -4 6 -10 3 -18 -11
-11 -35 13 -45 22 -10 22 -10 -3 -7 -30 3 -38 31 -16 56 10 11 14 25 10 37
-12 33 3 11 19 -28z m700 34 c3 -4 7 -19 11 -34 5 -21 3 -28 -9 -28 -8 0 -15
8 -15 17 0 9 -7 24 -15 33 -13 14 -12 16 5 17 11 1 21 -1 23 -5z m-754 -47 c0
-5 -4 -3 -9 5 -5 8 -9 22 -9 30 0 16 17 -16 18 -35z m497 -10 c15 -46 15 -57
5 -68 -11 -10 -13 -9 -9 3 3 8 -1 32 -8 54 -14 39 -18 66 -10 66 3 0 13 -25
22 -55z m-229 23 c-3 -8 -6 -5 -6 6 -1 11 2 17 5 13 3 -3 4 -12 1 -19z m263
-9 c0 -6 -4 -7 -10 -4 -5 3 -10 11 -10 16 0 6 5 7 10 4 6 -3 10 -11 10 -16z
m353 -1 c-15 -17 -18 -30 -12 -48 12 -40 9 -70 -3 -35 -14 38 -31 49 -40 27
-6 -16 -7 -16 -7 1 -1 10 6 20 14 23 8 4 15 12 15 20 0 8 7 14 15 14 8 0 15 5
15 10 0 6 5 10 12 10 6 0 2 -10 -9 -22z m-141 -55 c17 -38 32 -71 35 -75 2 -5
2 -8 -1 -8 -6 0 -76 134 -76 145 0 18 15 -4 42 -62z m245 45 c-3 -8 -6 -5 -6
6 -1 11 2 17 5 13 3 -3 4 -12 1 -19z m107 7 c-4 -8 -8 -15 -10 -15 -2 0 -4 7
-4 15 0 8 4 15 10 15 5 0 7 -7 4 -15z m-662 -30 c5 -40 -8 -48 -18 -11 -5 22
0 46 10 46 2 0 6 -16 8 -35z m606 0 c-22 -39 -38 -42 -16 -3 11 20 27 37 35
38 1 0 -7 -16 -19 -35z m182 26 c0 -18 -12 -41 -22 -41 -5 0 -6 5 -3 10 3 6 1
10 -4 10 -6 0 -11 7 -11 15 0 8 9 15 20 15 11 0 20 -4 20 -9z m-49 -13 c1 -7
3 -25 5 -40 2 -21 -2 -28 -14 -28 -13 0 -14 2 -3 9 9 6 10 11 3 15 -6 4 -16
-3 -22 -14 -7 -13 -7 -20 0 -20 5 0 10 -7 10 -17 0 -13 -4 -12 -19 6 -11 13
-17 29 -14 37 3 8 0 21 -7 29 -15 18 -7 19 20 3 10 -7 23 -8 27 -4 4 5 2 11
-4 13 -18 6 -16 23 2 23 8 0 16 -6 16 -12z m-618 -25 c8 -16 17 -41 21 -58 6
-28 5 -29 -9 -11 -8 11 -15 30 -15 42 0 13 -4 26 -10 29 -5 3 -10 10 -10 16 0
17 9 9 23 -18z m-383 -8 c0 -14 0 -28 1 -32 0 -4 -3 -9 -8 -10 -4 -2 -9 13
-10 32 -2 19 2 35 7 35 6 0 10 -11 10 -25z m629 -2 c13 -28 13 -28 -8 -9 -22
20 -27 36 -13 36 5 0 14 -12 21 -27z m191 -10 c0 -21 -3 -61 -6 -90 -8 -61
-34 -76 -71 -41 -25 23 -29 38 -12 38 5 0 8 -3 6 -7 -3 -5 6 -16 19 -26 23
-17 23 -17 17 0 -3 10 -14 27 -25 39 -10 11 -15 23 -12 27 4 4 18 -8 31 -25
16 -22 23 -27 23 -15 0 9 -4 17 -10 17 -5 0 -10 5 -10 10 0 6 7 10 16 10 13 0
15 7 11 29 -7 32 1 71 14 71 5 0 9 -17 9 -37z m-680 -9 c0 -9 7 -14 18 -12 12
2 18 -5 20 -27 2 -25 1 -27 -8 -12 -15 24 -30 21 -27 -4 1 -12 -3 -24 -9 -26
-7 -2 -10 16 -10 51 1 30 4 52 9 49 4 -2 7 -11 7 -19z m636 -21 c-3 -8 -1 -11
4 -8 6 3 10 2 10 -3 0 -6 -7 -12 -15 -16 -11 -4 -15 2 -15 25 0 19 4 28 11 24
6 -4 8 -14 5 -22z m-521 8 c3 -5 0 -13 -5 -16 -7 -4 -9 -25 -6 -53 3 -26 8
-67 11 -92 l5 -45 -15 33 c-15 35 -29 158 -19 173 7 12 21 11 29 0z m228 -58
c25 -28 15 -43 -13 -18 -13 11 -20 30 -19 49 1 21 3 25 6 11 3 -11 14 -30 26
-42z m367 25 c0 -23 -3 -29 -11 -21 -6 6 -8 20 -4 32 9 30 15 26 15 -11z m187
-5 c-3 -10 -5 -4 -5 12 0 17 2 24 5 18 2 -7 2 -21 0 -30z m-651 -48 c2 -30 -1
-43 -7 -39 -6 3 -9 17 -6 30 2 14 1 27 -4 30 -4 2 -6 11 -2 20 9 24 16 8 19
-41z m180 5 c8 0 14 -4 14 -10 0 -5 -4 -10 -8 -10 -11 0 -62 53 -62 64 0 5 9
-3 21 -18 11 -14 27 -26 35 -26z m394 20 c0 -12 5 -17 13 -14 8 3 13 -4 14
-17 3 -40 20 -42 27 -4 4 19 11 33 16 30 16 -10 -7 -95 -26 -95 -8 0 -12 5 -9
10 3 6 2 10 -4 10 -5 0 -17 15 -26 33 -21 40 -29 81 -15 72 5 -3 10 -15 10
-25z m-984 -18 c0 -20 4 -50 8 -65 4 -19 3 -26 -4 -22 -5 3 -10 -1 -10 -9 0
-18 16 -21 26 -5 10 16 21 -1 29 -45 6 -36 5 -38 -9 -27 -9 8 -16 25 -16 40 0
17 -3 22 -9 13 -6 -11 -10 -11 -19 0 -13 16 -27 132 -18 147 13 21 22 11 22
-27z m954 23 c0 -8 -4 -15 -10 -15 -5 0 -7 7 -4 15 4 8 8 15 10 15 2 0 4 -7 4
-15z m80 5 c0 -5 -7 -10 -16 -10 -8 0 -12 5 -9 10 3 6 10 10 16 10 5 0 9 -4 9
-10z m-1176 -26 c4 -11 2 -12 -14 -1 -11 6 -20 15 -20 19 0 12 28 -3 34 -18z
m96 8 c0 -5 -7 -9 -15 -9 -8 0 -12 4 -9 9 3 4 9 8 15 8 5 0 9 -4 9 -8z m266
-39 c8 -3 14 -15 13 -27 0 -20 -1 -20 -9 -1 -5 11 -9 16 -10 10 -2 -17 -19 29
-18 50 1 16 2 16 5 -3 3 -13 11 -26 19 -29z m259 27 c3 -5 1 -10 -4 -10 -6 0
-11 5 -11 10 0 6 2 10 4 10 3 0 8 -4 11 -10z m105 -53 c0 -12 0 -11 -24 28
l-17 30 20 -24 c12 -13 21 -28 21 -34z m-650 21 c0 -12 -3 -18 -7 -14 -11 10
-12 36 -2 36 5 0 9 -10 9 -22z m127 0 c-3 -8 -6 -5 -6 6 -1 11 2 17 5 13 3 -3
4 -12 1 -19z m76 -20 c9 2 17 -3 17 -10 0 -7 2 -50 5 -95 3 -48 1 -84 -5 -88
-6 -3 -10 3 -10 14 0 11 -5 23 -11 27 -7 4 -7 10 -1 16 13 13 4 108 -13 125
-8 8 -15 24 -14 36 1 20 2 20 8 -3 5 -16 13 -24 24 -22z m407 16 c0 -8 -5 -12
-10 -9 -6 4 -8 11 -5 16 9 14 15 11 15 -7z m-45 -10 c14 -9 25 -21 25 -28 0
-6 -5 -4 -10 4 -6 10 -10 11 -10 3 0 -7 -5 -13 -11 -13 -5 0 -7 5 -3 12 4 6
-1 17 -11 25 -26 19 -9 16 20 -3z m649 -62 c-2 -24 -8 -50 -13 -59 -7 -13 -8
-6 -7 22 2 22 4 58 5 80 2 31 4 35 10 20 4 -11 6 -39 5 -63z m-774 58 c0 -5
-7 -7 -15 -4 -8 4 -15 8 -15 10 0 2 7 4 15 4 8 0 15 -4 15 -10z m305 -15 c28
-24 29 -25 8 -25 -13 0 -23 5 -23 11 0 5 -6 7 -12 3 -7 -4 -10 -4 -6 1 4 4 3
14 -3 22 -18 21 4 14 36 -12z m20 15 c3 -5 1 -10 -4 -10 -6 0 -11 5 -11 10 0
6 2 10 4 10 3 0 8 -4 11 -10z m-74 -23 c-13 -13 -26 -3 -16 12 3 6 11 8 17 5
6 -4 6 -10 -1 -17z m-407 -22 c5 -22 4 -26 -4 -15 -5 8 -10 24 -10 34 0 26 6
18 14 -19z m146 14 c0 -6 -4 -7 -10 -4 -5 3 -10 11 -10 16 0 6 5 7 10 4 6 -3
10 -11 10 -16z m-278 -57 c-7 -19 -27 -8 -26 14 3 57 5 60 18 29 7 -16 11 -36
8 -43z m325 36 c-3 -7 -5 -2 -5 12 0 14 2 19 5 13 2 -7 2 -19 0 -25z m539 5
c-10 -10 -19 5 -10 18 6 11 8 11 12 0 2 -7 1 -15 -2 -18z m124 17 c0 -5 -4
-10 -10 -10 -5 0 -10 5 -10 10 0 6 5 10 10 10 6 0 10 -4 10 -10z m-1120 -20
c-8 -5 -10 -10 -5 -10 6 0 3 -4 -5 -10 -9 -5 -19 -5 -27 2 -18 15 -6 28 25 28
21 0 24 -2 12 -10z m517 4 c-3 -3 -12 -4 -19 -1 -8 3 -5 6 6 6 11 1 17 -2 13
-5z m183 -19 c5 -14 14 -25 19 -25 10 0 3 -38 -9 -45 -4 -3 -16 7 -25 22 -17
25 -17 26 0 19 15 -5 16 -4 5 9 -7 8 -9 15 -5 15 4 0 2 7 -5 15 -9 11 -9 15
-1 15 6 0 16 -11 21 -25z m-40 5 c0 -13 -40 -13 -60 0 -11 7 -5 10 23 10 20 0
37 -4 37 -10z m-230 -45 c0 -5 -5 -3 -10 5 -5 8 -10 20 -10 25 0 6 5 3 10 -5
5 -8 10 -19 10 -25z m223 -6 c5 -17 0 -19 -41 -18 -26 0 -42 3 -36 5 7 3 10
13 7 23 -4 14 1 16 30 13 24 -3 37 -10 40 -23z m-379 -161 c-11 -18 -23 -6
-30 27 -3 19 -9 33 -13 31 -3 -2 -4 24 -2 57 l3 62 24 -84 c13 -47 21 -88 18
-93z m124 137 c-3 -3 -9 2 -12 12 -6 14 -5 15 5 6 7 -7 10 -15 7 -18z m-338
-15 c0 -5 -5 -10 -11 -10 -5 0 -7 5 -4 10 3 6 8 10 11 10 2 0 4 -4 4 -10z m40
-20 c0 -5 -5 -10 -11 -10 -5 0 -7 5 -4 10 3 6 8 10 11 10 2 0 4 -4 4 -10z
m-67 -32 c-4 -7 -9 -21 -10 -31 -2 -14 1 -17 17 -12 21 7 28 -9 10 -20 -25
-16 -55 47 -33 68 11 12 24 7 16 -5z m520 -20 c6 -22 5 -22 -8 -4 -17 22 -20
40 -6 32 5 -3 11 -16 14 -28z m37 2 c13 -8 13 -10 -2 -10 -9 0 -20 5 -23 10
-8 13 5 13 25 0z m-117 -24 c7 4 9 3 4 -1 -4 -5 1 -17 10 -28 18 -20 17 -20
-16 -14 -18 4 -40 7 -47 7 -8 0 -14 5 -14 11 0 7 10 9 26 5 22 -6 24 -5 15 13
-14 25 -14 42 0 18 6 -9 16 -14 22 -11z m-303 10 c0 -2 -7 -7 -16 -10 -8 -3
-12 -2 -9 4 6 10 25 14 25 6z m-40 -15 c0 -6 -4 -13 -10 -16 -5 -3 -10 1 -10
9 0 9 5 16 10 16 6 0 10 -4 10 -9z m411 -19 c-16 -5 -41 5 -41 17 0 7 10 6 26
-1 15 -7 21 -14 15 -16z m-203 -7 c-3 -3 -9 2 -12 12 -6 14 -5 15 5 6 7 -7 10
-15 7 -18z"/>
<path d="M3475 2520 c-3 -5 -1 -10 4 -10 6 0 11 5 11 10 0 6 -2 10 -4 10 -3 0
-8 -4 -11 -10z"/>
<path d="M3505 2520 c-3 -5 3 -10 14 -10 12 0 21 5 21 10 0 6 -6 10 -14 10 -8
0 -18 -4 -21 -10z"/>
<path d="M3865 2400 c-3 -5 -1 -10 4 -10 6 0 11 5 11 10 0 6 -2 10 -4 10 -3 0
-8 -4 -11 -10z"/>
<path d="M3545 2310 c-4 -6 -11 -7 -17 -4 -7 4 -8 2 -4 -5 6 -9 11 -9 22 0 14
11 18 19 10 19 -3 0 -8 -5 -11 -10z"/>
<path d="M3563 2255 c0 -8 4 -12 9 -9 5 3 6 10 3 15 -9 13 -12 11 -12 -6z"/>
<path d="M3410 2230 c0 -5 5 -10 11 -10 5 0 7 5 4 10 -3 6 -8 10 -11 10 -2 0
-4 -4 -4 -10z"/>
<path d="M3690 2237 c0 -3 4 -17 10 -32 7 -19 7 -25 -3 -24 -34 4 -47 -2 -47
-23 0 -15 3 -19 8 -11 8 12 36 12 48 0 13 -13 19 -7 20 18 1 14 -3 25 -8 25
-6 0 -8 6 -5 14 3 8 -1 20 -9 26 -8 7 -14 10 -14 7z"/>
<path d="M3160 2130 c0 -5 5 -10 11 -10 5 0 7 5 4 10 -3 6 -8 10 -11 10 -2 0
-4 -4 -4 -10z"/>
<path d="M2570 1299 c0 -5 5 -7 10 -4 6 3 10 8 10 11 0 2 -4 4 -10 4 -5 0 -10
-5 -10 -11z"/>
<path d="M3755 2595 c-24 -11 -26 -14 -9 -15 11 0 29 7 40 15 24 18 9 18 -31
0z"/>
<path d="M6522 2583 c14 -16 38 -43 54 -61 23 -27 80 -62 100 -62 11 0 2 30
-16 53 -27 34 -111 89 -127 83 -7 -3 -13 -1 -13 4 0 6 -5 10 -12 10 -6 0 0
-12 14 -27z"/>
<path d="M3680 2596 c0 -2 9 -6 20 -9 11 -3 20 -1 20 4 0 5 -9 9 -20 9 -11 0
-20 -2 -20 -4z"/>
<path d="M4137 2576 c-16 -12 -15 -13 8 -13 14 0 28 3 31 8 3 5 -3 6 -12 2
-12 -4 -15 -3 -10 5 9 15 5 15 -17 -2z"/>
<path d="M4232 2553 c-6 -15 -11 -21 -11 -12 -1 20 -28 33 -37 18 -3 -6 -7
-21 -9 -35 -1 -13 -10 -33 -20 -44 -20 -22 -20 -22 12 -39 16 -8 24 -8 29 1 4
7 3 8 -4 4 -16 -10 -14 5 3 28 15 20 15 20 15 0 1 -18 1 -18 14 -1 14 18 30
96 22 104 -2 2 -9 -8 -14 -24z m-12 -44 c0 -5 -4 -9 -10 -9 -5 0 -10 7 -10 16
0 8 5 12 10 9 6 -3 10 -10 10 -16z"/>
<path d="M3778 2563 c7 -3 16 -2 19 1 4 3 -2 6 -13 5 -11 0 -14 -3 -6 -6z"/>
<path d="M4266 2544 c-9 -23 -7 -31 7 -37 9 -3 13 5 12 24 0 32 -9 38 -19 13z"/>
<path d="M7293 2531 l-31 -16 19 -35 c17 -32 19 -33 13 -7 -5 21 -1 34 17 53
26 27 25 28 -18 5z"/>
<path d="M4310 2376 c14 -18 13 -19 -2 -13 -10 3 -20 2 -23 -2 -2 -5 4 -11 14
-14 26 -6 35 18 13 35 -16 12 -16 11 -2 -6z"/>
<path d="M2231 2364 c0 -11 3 -14 6 -6 3 7 2 16 -1 19 -3 4 -6 -2 -5 -13z"/>
<path d="M4260 2341 c0 -6 4 -13 10 -16 6 -3 7 1 4 9 -7 18 -14 21 -14 7z"/>
<path d="M4330 2316 c0 -23 16 -27 17 -5 1 10 -2 19 -8 19 -5 0 -9 -6 -9 -14z"/>
<path d="M4385 2319 c-4 -6 -5 -12 -2 -15 2 -3 7 2 10 11 7 17 1 20 -8 4z"/>
<path d="M6690 2324 c0 -6 36 -49 81 -95 44 -46 77 -77 72 -68 -13 26 -153
175 -153 163z"/>
<path d="M4083 2313 c3 -5 -8 -17 -24 -27 -17 -10 -28 -20 -25 -24 3 -3 14 2
23 10 10 9 24 13 31 11 15 -6 16 23 0 33 -6 4 -8 3 -5 -3z"/>
<path d="M4126 2293 c-6 -14 -5 -15 5 -6 7 7 10 15 7 18 -3 3 -9 -2 -12 -12z"/>
<path d="M8601 2268 c-20 -13 -29 -24 -21 -26 6 -2 24 7 38 22 32 32 28 33
-17 4z"/>
<path d="M4085 2260 c-3 -5 -1 -10 4 -10 6 0 11 5 11 10 0 6 -2 10 -4 10 -3 0
-8 -4 -11 -10z"/>
<path d="M8270 2222 c-52 -22 -66 -33 -70 -53 -3 -15 -27 -44 -59 -70 -73 -60
-99 -95 -85 -117 15 -24 48 -26 65 -6 9 12 10 15 2 10 -9 -5 -13 0 -13 14 0
30 49 90 102 126 24 16 45 34 47 39 2 6 23 27 45 48 23 20 39 37 36 37 -3 0
-34 -13 -70 -28z"/>
<path d="M4070 2224 c0 -8 5 -12 10 -9 6 3 10 10 10 16 0 5 -4 9 -10 9 -5 0
-10 -7 -10 -16z"/>
<path d="M3975 2157 c-4 -10 -5 -21 -1 -24 10 -10 18 4 13 24 -4 17 -4 17 -12
0z"/>
<path d="M4187 2123 c-4 -3 -7 -13 -7 -22 1 -13 3 -13 11 2 11 19 8 33 -4 20z"/>
<path d="M4058 2093 c10 -4 9 -10 -5 -26 l-18 -20 28 18 c21 13 25 20 15 26
-7 5 -17 8 -23 8 -5 0 -4 -3 3 -6z"/>
<path d="M4315 2070 c3 -5 8 -10 11 -10 2 0 4 5 4 10 0 6 -5 10 -11 10 -5 0
-7 -4 -4 -10z"/>
<path d="M4370 2050 c-13 -8 -12 -10 3 -10 9 0 17 5 17 10 0 12 -1 12 -20 0z"/>
<path d="M3238 2038 c-7 -16 7 -46 17 -37 3 4 2 16 -3 29 -7 18 -10 20 -14 8z"/>
<path d="M3557 2023 c-4 -3 -7 -13 -7 -22 1 -13 3 -13 11 2 11 19 8 33 -4 20z"/>
<path d="M3507 1999 c7 -7 15 -10 18 -7 3 3 -2 9 -12 12 -14 6 -15 5 -6 -5z"/>
<path d="M3800 2000 c0 -6 -7 -18 -15 -27 -17 -16 -12 -33 11 -33 8 0 14 -4
14 -10 0 -19 29 -10 41 13 9 18 9 20 -2 10 -18 -18 -29 -16 -29 3 0 14 -3 14
-15 4 -8 -7 -15 -8 -15 -2 0 5 7 15 15 22 12 10 18 10 32 -1 11 -9 14 -10 9
-2 -11 19 -46 36 -46 23z"/>
<path d="M3911 1992 c-1 -8 -6 -10 -13 -6 -7 4 -3 -3 10 -15 16 -16 29 -20 40
-15 15 6 14 8 -5 11 -12 2 -24 12 -26 21 -3 9 -5 11 -6 4z"/>
<path d="M4071 1958 c-10 -30 -9 -31 4 -14 8 11 15 26 15 33 0 22 -8 14 -19
-19z"/>
<path d="M3476 1973 c-10 -10 -7 -25 4 -18 6 3 13 0 16 -8 3 -9 16 -18 30 -21
13 -4 24 -11 24 -17 0 -6 4 -8 10 -4 14 8 0 37 -16 31 -10 -4 -11 1 -4 22 10
27 10 27 -6 4 -16 -22 -17 -22 -34 -2 -9 11 -20 17 -24 13z"/>
<path d="M3870 1948 c0 -12 3 -17 8 -12 4 5 11 12 15 15 5 3 2 9 -7 12 -12 5
-16 0 -16 -15z"/>
<path d="M3571 1944 c0 -11 3 -14 6 -6 3 7 2 16 -1 19 -3 4 -6 -2 -5 -13z"/>
<path d="M4095 1950 c-3 -5 -1 -10 4 -10 6 0 11 5 11 10 0 6 -2 10 -4 10 -3 0
-8 -4 -11 -10z"/>
<path d="M3672 1922 c1 -19 6 -36 10 -38 11 -7 10 38 -2 56 -8 11 -10 7 -8
-18z"/>
<path d="M3636 1925 c-3 -8 -1 -15 4 -15 6 0 10 7 10 15 0 8 -2 15 -4 15 -2 0
-6 -7 -10 -15z"/>
<path d="M3953 1923 c0 -23 26 -53 46 -53 10 0 6 7 -11 18 -19 11 -26 22 -22
34 3 10 1 18 -4 18 -5 0 -9 -8 -9 -17z"/>
<path d="M3822 1885 c0 -16 2 -22 5 -12 2 9 2 23 0 30 -3 6 -5 -1 -5 -18z"/>
<path d="M4105 1900 c-3 -6 1 -7 9 -4 18 7 21 14 7 14 -6 0 -13 -4 -16 -10z"/>
<path d="M3930 1879 c0 -11 4 -18 10 -14 5 3 7 12 3 20 -7 21 -13 19 -13 -6z"/>
<path d="M3603 1865 c0 -8 4 -12 9 -9 5 3 6 10 3 15 -9 13 -12 11 -12 -6z"/>
<path d="M3705 1871 c-3 -6 3 -9 14 -8 11 0 17 5 15 9 -7 11 -22 10 -29 -1z"/>
<path d="M4307 1863 c-3 -10 -8 -28 -12 -40 -4 -14 -2 -23 4 -23 6 0 10 3 9 8
-1 4 2 20 7 35 4 15 5 30 2 33 -3 3 -7 -3 -10 -13z"/>
<path d="M4141 1854 c0 -11 3 -14 6 -6 3 7 2 16 -1 19 -3 4 -6 -2 -5 -13z"/>
<path d="M3474 1848 c-3 -5 9 -8 27 -8 27 0 30 -2 19 -15 -10 -12 -10 -15 1
-15 8 0 19 10 24 23 10 21 9 22 -28 22 -21 0 -41 -3 -43 -7z"/>
<path d="M4206 1848 c3 -5 10 -6 15 -3 13 9 11 12 -6 12 -8 0 -12 -4 -9 -9z"/>
<path d="M3654 1832 c3 -6 -4 -18 -16 -26 -12 -9 -18 -19 -14 -23 4 -4 12 0
17 10 10 17 39 24 39 10 0 -5 -12 -19 -26 -32 -21 -20 -27 -22 -35 -10 -7 12
-9 12 -9 -1 0 -9 5 -21 12 -28 9 -9 9 -12 0 -12 -7 0 -12 -8 -12 -17 0 -11 3
-14 8 -7 4 6 24 11 45 12 21 1 42 4 46 7 5 3 12 -3 16 -13 8 -22 7 -27 -4 -27
-13 0 -25 -13 -27 -31 -2 -11 3 -13 14 -9 28 12 45 11 49 -2 3 -8 -4 -13 -16
-13 -26 0 -28 -7 -20 -55 l6 -40 3 35 c1 19 2 38 2 41 -1 3 5 6 12 6 8 0 12
-10 10 -27 -2 -19 1 -27 12 -27 12 0 15 8 12 29 -5 28 6 39 15 16 3 -7 6 1 6
19 1 25 -3 32 -21 35 -16 2 -24 11 -25 28 -2 14 -6 40 -9 58 -5 28 -4 32 15
32 11 0 21 5 21 10 0 6 -5 10 -11 10 -6 0 -8 9 -3 22 6 20 5 21 -10 9 -13 -11
-19 -11 -31 -1 -8 6 -20 10 -27 7 -7 -2 -21 0 -32 5 -12 7 -16 7 -12 0z m76
-32 c13 -8 12 -10 -5 -11 -11 -1 -23 -1 -28 0 -4 1 -5 -11 -2 -26 4 -23 4 -25
-4 -8 -6 12 -10 15 -10 6 -1 -8 -4 -11 -8 -8 -9 9 17 57 31 57 6 0 18 -5 26
-10z m-56 -71 c-6 -11 -24 -2 -24 11 0 5 7 7 15 4 8 -4 12 -10 9 -15z"/>
<path d="M4457 1820 c3 -11 9 -20 13 -20 5 0 6 9 3 20 -3 11 -9 20 -13 20 -5
0 -6 -9 -3 -20z"/>
<path d="M3888 1809 c-15 -16 -15 -20 -3 -26 8 -5 19 -26 24 -48 l9 -40 2 40
c5 82 -5 103 -32 74z"/>
<path d="M3586 1805 c4 -8 10 -15 15 -15 5 0 9 7 9 15 0 8 -7 15 -15 15 -9 0
-12 -6 -9 -15z"/>
<path d="M4111 1801 c-9 -6 -10 -11 -2 -15 6 -4 11 -2 11 4 0 6 5 8 12 4 7 -4
8 -3 4 4 -8 14 -7 14 -25 3z"/>
<path d="M4280 1780 c0 -5 5 -10 10 -10 6 0 10 5 10 10 0 6 -4 10 -10 10 -5 0
-10 -4 -10 -10z"/>
<path d="M3200 1771 c0 -6 5 -13 10 -16 6 -3 10 1 10 9 0 9 -4 16 -10 16 -5 0
-10 -4 -10 -9z"/>
<path d="M4226 1765 c-3 -8 -1 -15 4 -15 6 0 10 7 10 15 0 8 -2 15 -4 15 -2 0
-6 -7 -10 -15z"/>
<path d="M4340 1771 c0 -17 -49 -25 -65 -11 -13 11 -14 10 -9 -4 7 -19 40 -20
73 -2 15 8 20 16 12 20 -6 4 -11 3 -11 -3z"/>
<path d="M3870 1760 c0 -5 -13 -7 -32 -3 -22 4 -29 3 -24 -5 5 -8 -2 -12 -18
-12 -14 0 -26 5 -26 12 0 6 -3 9 -6 5 -3 -3 -3 -19 1 -36 l7 -31 19 22 c12 14
17 17 13 7 -3 -10 1 -19 11 -23 23 -9 42 4 22 16 -9 5 -14 15 -10 24 4 11 8
12 13 4 9 -14 40 -2 40 16 0 8 -2 14 -5 14 -3 0 -5 -4 -5 -10z"/>
<path d="M4036 1745 c8 -37 14 -45 14 -19 0 10 -5 26 -10 34 -8 11 -9 7 -4
-15z"/>
<path d="M3315 1730 c-3 -5 -1 -10 4 -10 6 0 11 5 11 10 0 6 -2 10 -4 10 -3 0
-8 -4 -11 -10z"/>
<path d="M3940 1738 c0 -7 59 -68 66 -68 3 0 0 8 -5 19 -6 10 -7 21 -4 25 3 3
-3 6 -13 6 -11 0 -25 5 -32 12 -7 7 -12 9 -12 6z"/>
<path d="M3190 1719 c0 -5 9 -9 20 -9 11 0 20 2 20 4 0 2 -9 6 -20 9 -11 3
-20 1 -20 -4z"/>
<path d="M3245 1714 c-21 -21 -19 -27 5 -12 17 11 22 10 30 -2 6 -11 12 -12
20 -4 7 7 3 14 -14 22 -20 9 -28 8 -41 -4z"/>
<path d="M4064 1694 c-2 -24 -1 -25 17 -8 15 13 17 19 7 26 -20 12 -23 10 -24
-18z"/>
<path d="M4150 1710 c0 -5 5 -10 10 -10 6 0 10 5 10 10 0 6 -4 10 -10 10 -5 0
-10 -4 -10 -10z"/>
<path d="M3936 1693 c-4 -9 -4 -18 -1 -21 3 -3 5 0 5 7 0 7 5 9 10 6 15 -9 12
-25 -5 -25 -17 0 -18 -14 -5 -45 7 -17 9 -16 9 10 1 21 4 26 10 16 6 -9 10 -4
13 19 3 23 0 34 -13 40 -12 7 -19 5 -23 -7z"/>
<path d="M4133 1675 c6 -19 13 -35 17 -35 4 0 2 16 -4 35 -6 19 -14 35 -18 35
-3 0 -1 -16 5 -35z"/>
<path d="M4310 1699 c0 -5 5 -7 10 -4 6 3 10 8 10 11 0 2 -4 4 -10 4 -5 0 -10
-5 -10 -11z"/>
<path d="M3646 1679 c-27 -27 -12 -35 18 -11 17 13 22 21 13 24 -6 3 -21 -3
-31 -13z"/>
<path d="M4470 1690 c0 -6 7 -10 15 -10 8 0 15 2 15 4 0 2 -7 6 -15 10 -8 3
-15 1 -15 -4z"/>
<path d="M4280 1683 c0 -6 5 -15 11 -18 6 -4 15 -17 20 -29 l10 -21 -5 22 c-4
24 15 48 29 35 5 -4 5 -1 1 6 -5 9 -12 9 -28 1 -16 -9 -23 -8 -29 2 -6 10 -9
10 -9 2z"/>
<path d="M4160 1666 c0 -8 5 -18 10 -21 6 -3 10 1 10 9 0 8 -4 18 -10 21 -5 3
-10 -1 -10 -9z"/>
<path d="M4225 1670 c3 -5 14 -10 23 -10 15 0 15 2 2 10 -20 13 -33 13 -25 0z"/>
<path d="M3810 1655 c0 -8 5 -15 10 -15 6 0 10 7 10 15 0 8 -4 15 -10 15 -5 0
-10 -7 -10 -15z"/>
<path d="M3847 1636 c-4 -10 -5 -21 -2 -24 9 -9 17 6 13 25 -3 17 -4 17 -11
-1z"/>
<path d="M4201 1634 c0 -11 3 -14 6 -6 3 7 2 16 -1 19 -3 4 -6 -2 -5 -13z"/>
<path d="M4240 1645 c-8 -29 -6 -55 2 -47 5 5 8 20 5 33 -2 13 -5 20 -7 14z"/>
<path d="M4041 1624 c0 -11 3 -14 6 -6 3 7 2 16 -1 19 -3 4 -6 -2 -5 -13z"/>
<path d="M3277 1610 c3 -11 7 -20 9 -20 2 0 4 9 4 20 0 11 -4 20 -9 20 -5 0
-7 -9 -4 -20z"/>
<path d="M3650 1614 c0 -8 5 -12 10 -9 6 4 8 11 5 16 -9 14 -15 11 -15 -7z"/>
<path d="M4117 1623 c-4 -3 -7 -11 -7 -17 0 -6 5 -5 12 2 6 6 9 14 7 17 -3 3
-9 2 -12 -2z"/>
<path d="M3673 1596 c-19 -9 -21 -16 -17 -51 3 -22 6 -50 7 -63 1 -13 7 -20
15 -17 8 3 11 -4 7 -23 -2 -15 0 -34 5 -42 8 -13 10 -12 10 3 0 9 7 17 15 17
8 0 15 -4 15 -10 0 -5 -6 -10 -12 -10 -9 0 -8 -4 2 -11 11 -8 12 -12 3 -16
-20 -7 -15 -19 7 -20 22 -2 22 -2 6 94 -1 7 -5 16 -9 19 -4 4 -7 19 -7 33 l0
25 -17 -24 -17 -24 -7 24 c-3 14 -2 30 3 37 6 7 3 15 -8 21 -15 8 -14 11 7 25
27 20 23 27 -8 13z"/>
<path d="M3810 1591 c0 -5 7 -11 15 -15 8 -3 15 -1 15 3 0 5 -7 11 -15 15 -8
3 -15 1 -15 -3z"/>
<path d="M4160 1574 c0 -8 5 -12 10 -9 6 3 10 10 10 16 0 5 -4 9 -10 9 -5 0
-10 -7 -10 -16z"/>
<path d="M3937 1573 c-12 -11 -8 -51 6 -56 8 -4 9 -8 2 -14 -14 -11 -19 -103
-5 -103 6 0 9 4 5 9 -3 5 -1 12 3 15 5 3 7 17 4 31 -3 19 0 25 12 25 10 0 14
4 11 10 -3 5 0 7 8 4 9 -3 12 -14 9 -32 -3 -15 -1 -24 3 -20 5 5 10 21 12 38
1 16 3 33 4 37 3 20 -2 34 -10 28 -5 -3 -13 5 -17 17 -7 22 -8 22 -20 -7 -11
-24 -13 -26 -15 -10 -1 11 -1 23 0 28 1 9 -4 9 -12 0z"/>
<path d="M4218 1549 c-4 -25 -1 -29 18 -29 13 0 24 -7 27 -17 4 -16 5 -16 6
-1 0 9 -5 23 -12 30 -8 7 -12 18 -10 24 2 7 -3 14 -11 17 -10 4 -15 -3 -18
-24z"/>
<path d="M4286 1552 c-3 -6 -1 -14 5 -17 5 -4 8 -14 5 -22 -3 -8 1 -21 9 -29
8 -9 15 -11 15 -5 0 5 -5 13 -10 16 -6 4 -8 10 -5 15 3 4 1 18 -3 31 -5 14
-11 18 -16 11z"/>
<path d="M3616 1543 c-11 -11 -6 -23 9 -23 8 0 15 4 15 9 0 13 -16 22 -24 14z"/>
<path d="M3738 1515 c-6 -30 -2 -32 12 -6 6 11 6 22 1 25 -5 3 -11 -5 -13 -19z"/>
<path d="M3859 1538 c0 -2 -2 -15 -4 -30 -2 -16 -6 -36 -9 -46 -4 -10 1 -27 9
-38 12 -16 14 -17 15 -2 0 9 6 19 13 21 8 4 9 8 2 14 -6 4 -10 20 -10 36 1 15
-4 27 -10 27 -5 0 -3 5 5 10 10 6 11 10 3 10 -7 0 -13 -1 -14 -2z"/>
<path d="M3817 1523 c-4 -3 -7 -11 -7 -17 0 -6 5 -5 12 2 6 6 9 14 7 17 -3 3
-9 2 -12 -2z"/>
<path d="M4126 1504 c-8 -29 -3 -39 13 -29 13 8 15 55 2 55 -5 0 -12 -12 -15
-26z"/>
<path d="M4178 1522 c-10 -2 -18 -10 -18 -18 0 -13 18 -19 48 -15 15 2 42 -23
42 -38 0 -15 47 -14 56 0 4 7 1 10 -7 7 -21 -8 -49 10 -49 31 0 14 -6 17 -24
14 -15 -3 -25 0 -28 9 -1 7 -11 12 -20 10z"/>
<path d="M3385 1490 c3 -5 8 -10 11 -10 2 0 4 5 4 10 0 6 -5 10 -11 10 -5 0
-7 -4 -4 -10z"/>
<path d="M3901 1446 c-1 -33 -4 -57 -7 -53 -6 6 -44 -23 -44 -35 0 -4 13 -2
29 3 26 9 30 15 33 60 1 27 0 58 -4 67 -4 9 -7 -10 -7 -42z"/>
<path d="M4026 1484 c-3 -9 -2 -12 5 -9 6 4 17 -1 24 -11 17 -22 20 -11 5 17
-13 23 -26 24 -34 3z"/>
<path d="M3810 1475 c-10 -12 -10 -15 4 -15 9 0 16 7 16 15 0 8 -2 15 -4 15
-2 0 -9 -7 -16 -15z"/>
<path d="M4348 1483 c7 -3 16 -2 19 1 4 3 -2 6 -13 5 -11 0 -14 -3 -6 -6z"/>
<path d="M4145 1469 c-4 -6 -3 -15 3 -21 6 -6 11 -4 15 6 7 18 -9 31 -18 15z"/>
<path d="M3630 1460 c0 -5 5 -10 10 -10 6 0 10 5 10 10 0 6 -4 10 -10 10 -5 0
-10 -4 -10 -10z"/>
<path d="M3781 1461 c0 -8 -7 -11 -17 -7 -9 4 -13 2 -8 -5 12 -20 16 -109 6
-138 -8 -23 -6 -30 9 -39 11 -7 19 -18 18 -25 0 -9 -2 -9 -6 1 -2 6 -12 12
-21 12 -13 0 -18 -11 -20 -50 -1 -29 2 -50 8 -50 5 0 10 7 10 16 0 8 4 13 9
10 5 -3 5 -21 1 -41 -5 -24 -4 -33 3 -28 6 4 8 -2 5 -15 -4 -12 -2 -22 3 -22
5 0 9 6 9 13 0 8 4 7 10 -3 6 -9 10 -10 10 -3 0 6 -4 15 -10 18 -5 3 -10 17
-10 31 0 13 5 24 10 24 6 0 9 3 9 8 -1 4 -1 21 1 37 1 26 3 27 10 10 4 -11 6
-29 4 -40 -2 -11 0 -27 5 -35 14 -21 34 1 29 31 -2 13 3 29 11 35 11 8 11 15
3 30 -11 18 -13 17 -16 -15 0 -8 -7 -16 -15 -19 -11 -4 -13 2 -8 28 4 18 7 39
7 47 0 9 6 13 15 9 8 -3 15 -1 15 3 0 14 -30 22 -30 8 0 -7 -6 -3 -12 8 -6 11
-15 23 -20 26 -6 3 -10 10 -10 15 0 5 -4 8 -10 6 -5 -1 -8 3 -5 10 2 7 14 12
26 10 15 -1 21 2 18 10 -2 7 -10 12 -17 10 -8 -2 -11 4 -7 18 3 11 1 20 -3 20
-5 0 -11 10 -13 23 -2 12 -5 16 -6 8z m9 -61 c0 -11 -2 -20 -4 -20 -2 0 -6 9
-9 20 -3 11 -1 20 4 20 5 0 9 -9 9 -20z m5 -80 c3 -5 1 -10 -4 -10 -6 0 -11 5
-11 10 0 6 2 10 4 10 3 0 8 -4 11 -10z"/>
<path d="M4055 1429 c-4 -5 -14 -8 -22 -4 -13 4 -14 3 -4 -9 7 -8 14 -27 15
-42 4 -33 26 -45 26 -15 0 12 5 21 10 21 10 0 13 -17 14 -72 1 -41 20 -34 22
7 0 19 -3 35 -7 35 -5 0 -6 6 -3 14 3 7 -2 20 -10 29 -9 9 -16 20 -16 26 0 15
-18 23 -25 10z m15 -9 c0 -5 -5 -10 -11 -10 -5 0 -7 5 -4 10 3 6 8 10 11 10 2
0 4 -4 4 -10z"/>
<path d="M3630 1415 c0 -8 2 -15 4 -15 2 0 6 7 10 15 3 8 1 15 -4 15 -6 0 -10
-7 -10 -15z"/>
<path d="M4186 1393 c-6 -14 -5 -15 5 -6 7 7 10 15 7 18 -3 3 -9 -2 -12 -12z"/>
<path d="M3662 1380 c0 -14 2 -19 5 -12 2 6 2 18 0 25 -3 6 -5 1 -5 -13z"/>
<path d="M3462 1360 c1 -16 6 -30 10 -30 4 0 8 14 8 30 0 17 -5 30 -10 30 -6
0 -9 -13 -8 -30z"/>
<path d="M3540 1370 c0 -5 5 -10 10 -10 6 0 10 5 10 10 0 6 -4 10 -10 10 -5 0
-10 -4 -10 -10z"/>
<path d="M3930 1370 c0 -4 -3 -15 -6 -24 -3 -9 -1 -16 5 -16 6 0 11 7 11 15 0
9 6 12 15 9 11 -5 12 -11 5 -24 -14 -27 -12 -34 5 -20 22 18 15 51 -12 61 -13
5 -23 4 -23 -1z"/>
<path d="M3425 1360 c3 -5 8 -10 11 -10 2 0 4 5 4 10 0 6 -5 10 -11 10 -5 0
-7 -4 -4 -10z"/>
<path d="M4172 1359 c-1 -9 -9 -22 -18 -30 -14 -12 -14 -14 1 -25 15 -11 14
-13 -5 -27 -12 -8 -17 -17 -12 -21 5 -3 17 0 26 7 13 10 16 24 13 62 -2 28 -4
43 -5 34z"/>
<path d="M3501 1332 c0 -13 -5 -21 -10 -18 -5 3 -11 -10 -13 -29 -2 -19 0 -35
4 -35 4 0 8 8 8 18 0 10 5 23 11 29 6 6 9 21 6 34 l-4 24 -2 -23z"/>
<path d="M3885 1340 c3 -5 8 -10 11 -10 2 0 4 5 4 10 0 6 -5 10 -11 10 -5 0
-7 -4 -4 -10z"/>
<path d="M3610 1330 c0 -5 5 -10 11 -10 5 0 7 5 4 10 -3 6 -8 10 -11 10 -2 0
-4 -4 -4 -10z"/>
<path d="M3636 1303 c-18 -24 -18 -28 -3 -72 9 -25 19 -77 22 -116 5 -64 4
-68 -9 -50 -13 17 -15 18 -16 3 0 -9 3 -24 6 -32 6 -14 8 -14 23 3 14 16 16
31 12 68 -8 63 -3 105 12 100 7 -2 11 -11 9 -20 -1 -8 1 -18 6 -21 11 -7 3 95
-10 114 -8 12 -9 12 -4 -2 3 -10 1 -20 -5 -23 -5 -4 -7 -11 -4 -16 4 -5 1 -9
-6 -9 -8 0 -10 12 -6 38 9 51 -3 66 -27 35z m14 -23 c0 -5 -2 -10 -4 -10 -3 0
-8 5 -11 10 -3 6 -1 10 4 10 6 0 11 -4 11 -10z"/>
<path d="M3725 1320 c3 -5 8 -10 11 -10 2 0 4 5 4 10 0 6 -5 10 -11 10 -5 0
-7 -4 -4 -10z"/>
<path d="M4017 1319 c7 -7 15 -10 18 -7 3 3 -2 9 -12 12 -14 6 -15 5 -6 -5z"/>
<path d="M3596 1294 c-9 -24 -7 -54 4 -54 6 0 10 16 10 35 0 38 -4 44 -14 19z"/>
<path d="M3725 1280 c-4 -12 -5 -24 -2 -27 3 -2 8 5 12 17 4 12 5 24 2 27 -3
2 -8 -5 -12 -17z"/>
<path d="M4020 1285 c1 -6 7 -21 16 -35 l15 -25 -7 25 c-7 26 -24 52 -24 35z"/>
<path d="M4320 1276 c0 -9 5 -16 10 -16 6 0 10 4 10 9 0 6 -4 13 -10 16 -5 3
-10 -1 -10 -9z"/>
<path d="M3905 1261 c3 -11 2 -22 -4 -25 -5 -3 -7 -15 -4 -25 3 -10 0 -22 -6
-25 -17 -11 -13 -26 4 -20 8 4 22 0 31 -7 14 -11 14 -13 -1 -22 -11 -5 -22 -4
-32 5 -9 7 -14 8 -10 2 3 -6 2 -26 -3 -44 -5 -19 -8 -35 -6 -37 8 -8 37 31 32
43 -3 8 -2 14 2 15 4 0 15 2 25 4 9 2 17 -1 17 -6 0 -5 -6 -9 -13 -9 -8 0 -13
-16 -14 -44 0 -32 3 -43 12 -40 7 3 11 14 8 25 -4 13 0 19 10 19 11 0 15 9 15
30 -1 17 4 36 10 42 9 9 12 5 12 -17 l0 -30 19 25 c25 31 34 83 13 75 -8 -3
-16 3 -19 15 -3 11 -13 20 -23 20 -10 0 -21 8 -25 18 -7 16 -8 15 -15 -3 -13
-30 -12 -32 13 -40 14 -4 17 -8 9 -12 -21 -8 -42 18 -42 53 0 19 -5 34 -11 34
-6 0 -8 -8 -4 -19z m101 -88 c-11 -11 -65 -13 -71 -3 -3 6 3 10 15 10 11 0 23
7 26 15 5 13 8 13 21 -1 9 -8 13 -18 9 -21z"/>
<path d="M4276 1266 c3 -8 -1 -16 -9 -18 -13 -3 -13 -5 -1 -16 12 -11 14 -10
14 4 0 10 5 14 15 10 18 -7 20 5 3 22 -16 16 -29 15 -22 -2z"/>
<path d="M4170 1234 c15 -17 30 -18 30 -1 0 7 -9 13 -21 14 -17 2 -18 -1 -9
-13z"/>
<path d="M3721 1214 c0 -11 3 -14 6 -6 3 7 2 16 -1 19 -3 4 -6 -2 -5 -13z"/>
<path d="M4117 1219 c7 -7 15 -10 18 -7 3 3 -2 9 -12 12 -14 6 -15 5 -6 -5z"/>
<path d="M4345 1220 c-3 -5 -2 -10 4 -10 5 0 13 5 16 10 3 6 2 10 -4 10 -5 0
-13 -4 -16 -10z"/>
<path d="M3188 1213 c6 -2 12 -11 12 -18 0 -7 -6 -15 -12 -18 -9 -3 -8 -10 6
-23 18 -19 19 -19 12 0 -4 11 -2 23 6 27 9 6 9 11 -1 23 -8 9 -19 16 -25 15
-7 0 -6 -2 2 -6z"/>
<path d="M4070 1204 c0 -8 5 -12 10 -9 6 4 8 11 5 16 -9 14 -15 11 -15 -7z"/>
<path d="M4380 1180 c-13 -8 -12 -10 3 -10 9 0 17 5 17 10 0 12 -1 12 -20 0z"/>
<path d="M4062 1160 c-6 -11 -12 -24 -12 -29 0 -11 56 -9 67 3 4 5 1 7 -8 3
-20 -7 -39 10 -32 29 8 20 0 17 -15 -6z"/>
<path d="M4307 1161 c6 -7 9 -20 6 -28 -5 -12 -8 -11 -24 2 -16 16 -17 16 -12
-4 4 -15 12 -19 32 -18 31 2 32 26 2 49 -13 10 -14 10 -4 -1z"/>
<path d="M3701 1138 c-1 -23 15 -32 23 -12 3 8 2 13 -3 9 -5 -3 -12 1 -14 7
-4 8 -6 7 -6 -4z"/>
<path d="M4131 1123 c0 -6 -4 -20 -7 -30 -5 -14 -4 -15 5 -7 7 7 11 20 8 30
-3 11 -5 14 -6 7z"/>
<path d="M2128 1113 c6 -2 18 -2 25 0 6 3 1 5 -13 5 -14 0 -19 -2 -12 -5z"/>
<path d="M3845 1111 c-3 -5 -2 -12 3 -15 5 -3 9 1 9 9 0 17 -3 19 -12 6z"/>
<path d="M4384 1105 c22 -17 40 -20 32 -6 -3 5 -16 11 -28 14 -22 6 -22 5 -4
-8z"/>
<path d="M4469 1113 c-1 -7 -2 -19 -3 -25 -1 -7 -8 -12 -16 -10 -12 2 -12 0 1
-10 9 -7 16 -16 17 -21 2 -27 10 -28 16 -1 4 16 2 41 -3 55 -5 13 -11 18 -12
12z"/>
<path d="M3690 1097 c0 -11 8 -29 18 -41 16 -21 19 -21 32 -8 13 14 12 15 -4
9 -14 -6 -17 -4 -12 10 4 10 4 14 0 10 -5 -4 -14 3 -21 15 -10 20 -12 20 -13
5z"/>
<path d="M3237 1071 c-2 -10 -3 -32 -2 -50 3 -30 1 -31 -14 -17 -23 21 -57 0
-41 -24 5 -8 10 -11 10 -7 0 5 23 -10 50 -33 28 -23 50 -37 50 -32 0 6 -5 14
-11 17 -5 4 -8 12 -6 18 2 7 -2 27 -10 45 -18 43 -2 41 21 -3 11 -19 21 -33
24 -31 5 6 -39 88 -53 98 -6 5 -5 8 3 8 16 0 15 17 -2 23 -8 3 -16 -2 -19 -12z"/>
<path d="M4320 1070 c0 -11 7 -20 15 -20 13 0 14 4 5 20 -6 11 -13 20 -15 20
-3 0 -5 -9 -5 -20z"/>
<path d="M3836 1065 c4 -8 11 -15 16 -15 6 0 5 6 -2 15 -7 8 -14 15 -16 15 -2
0 -1 -7 2 -15z"/>
<path d="M4380 1071 c0 -5 9 -7 20 -4 11 3 20 0 20 -6 0 -6 -5 -11 -11 -11 -5
0 -7 -5 -4 -10 5 -8 11 -7 21 1 11 9 11 15 3 25 -13 16 -49 19 -49 5z"/>
<path d="M3497 1043 c-4 -3 -7 -22 -7 -41 0 -44 9 -37 15 12 5 37 4 41 -8 29z"/>
<path d="M3782 1020 c0 -14 2 -19 5 -12 2 6 2 18 0 25 -3 6 -5 1 -5 -13z"/>
<path d="M3854 1018 c1 -30 19 -33 42 -6 l19 23 -22 -18 c-14 -12 -23 -15 -28
-8 -3 6 -1 11 5 11 6 0 8 5 5 10 -11 17 -22 11 -21 -12z"/>
<path d="M3573 1011 c16 -21 30 -31 42 -31 6 1 2 5 -7 11 -10 5 -18 16 -18 23
0 7 -7 13 -15 13 -12 0 -12 -3 -2 -16z"/>
<path d="M4050 1015 c0 -8 5 -15 10 -15 6 0 10 7 10 15 0 8 -4 15 -10 15 -5 0
-10 -7 -10 -15z"/>
<path d="M4320 988 c0 -26 4 -38 8 -30 8 12 4 72 -4 72 -2 0 -4 -19 -4 -42z"/>
<path d="M4376 1014 c-8 -20 -8 -99 0 -91 7 7 16 107 10 107 -2 0 -7 -7 -10
-16z"/>
<path d="M4092 985 c15 -48 38 -54 38 -10 0 26 -3 33 -15 29 -8 -4 -15 -1 -15
5 0 6 -4 11 -9 11 -5 0 -5 -15 1 -35z"/>
<path d="M3408 1003 c7 -3 16 -2 19 1 4 3 -2 6 -13 5 -11 0 -14 -3 -6 -6z"/>
<path d="M3527 991 c-4 -17 -3 -21 5 -13 5 5 8 16 6 23 -3 8 -7 3 -11 -10z"/>
<path d="M3946 1003 c-4 -4 -16 -8 -26 -8 -11 0 -19 -4 -19 -9 0 -5 -5 -13
-13 -17 -10 -7 -9 -9 5 -9 9 0 17 5 17 12 0 6 8 1 19 -10 10 -12 23 -22 30
-22 6 0 11 -8 11 -17 1 -17 1 -17 11 0 11 19 3 41 -13 31 -7 -4 -7 0 0 12 15
30 -2 57 -22 37z"/>
<path d="M4010 1002 c0 -16 40 -56 48 -48 3 4 -6 19 -21 34 -15 14 -27 21 -27
14z"/>
<path d="M3655 980 c3 -5 14 -10 23 -10 15 0 15 2 2 10 -20 13 -33 13 -25 0z"/>
<path d="M3847 979 c7 -7 15 -10 18 -7 3 3 -2 9 -12 12 -14 6 -15 5 -6 -5z"/>
<path d="M3423 956 c7 -14 15 -26 20 -26 13 0 7 17 -13 35 -19 17 -19 17 -7
-9z"/>
<path d="M3728 968 c6 -6 18 -8 28 -6 14 3 12 5 -9 10 -19 3 -25 2 -19 -4z"/>
<path d="M4150 970 c0 -12 40 -54 45 -48 8 8 -8 48 -16 42 -5 -3 -9 0 -9 5 0
6 -4 11 -10 11 -5 0 -10 -4 -10 -10z"/>
<path d="M3340 961 c0 -15 33 -22 44 -10 8 9 8 10 -1 5 -6 -3 -14 -2 -18 4 -8
12 -25 13 -25 1z"/>
<path d="M2986 944 c-4 -12 -1 -14 14 -9 14 4 20 2 20 -8 0 -11 -7 -13 -22 -9
-21 5 -22 4 -8 -14 8 -10 15 -20 16 -22 1 -1 9 0 18 4 9 3 13 10 10 15 -9 15
13 10 26 -6 14 -17 40 -20 40 -5 0 5 8 7 18 3 11 -3 8 1 -7 12 -16 12 -19 20
-11 25 8 5 7 9 -5 13 -9 4 -13 3 -10 -3 9 -14 -9 -12 -23 2 -7 7 -12 9 -12 6
0 -4 7 -14 16 -22 24 -25 2 -19 -36 9 -40 30 -36 29 -44 9z"/>
<path d="M3551 944 c0 -11 3 -14 6 -6 3 7 2 16 -1 19 -3 4 -6 -2 -5 -13z"/>
<path d="M3130 940 c0 -5 5 -10 11 -10 5 0 7 5 4 10 -3 6 -8 10 -11 10 -2 0
-4 -4 -4 -10z"/>
<path d="M3912 928 c-14 -14 -16 -28 -3 -28 9 0 24 30 18 36 -2 2 -9 -2 -15
-8z"/>
<path d="M4270 902 c0 -23 4 -42 10 -42 6 0 7 15 4 38 -8 51 -14 53 -14 4z"/>
<path d="M3442 890 c4 -30 4 -31 -8 -15 -18 24 -29 13 -14 -14 11 -21 -3 -31
-15 -11 -3 6 -11 10 -18 10 -6 0 -1 -10 11 -22 21 -21 24 -22 33 -6 5 10 16
15 24 11 13 -4 14 -1 5 22 -6 15 -8 30 -5 35 3 5 0 12 -6 16 -8 5 -10 -3 -7
-26z"/>
<path d="M3304 888 c-4 -14 -13 -18 -31 -16 -33 4 -53 -23 -34 -46 8 -9 20
-16 27 -16 8 0 14 -4 14 -10 0 -5 5 -10 10 -10 21 0 9 20 -15 26 -25 6 -37 44
-14 44 5 0 7 -4 4 -10 -4 -6 6 -10 23 -10 22 0 29 5 28 17 0 9 8 19 21 22 l22
6 -24 11 c-21 10 -25 9 -31 -8z"/>
<path d="M3523 895 c0 -8 4 -12 9 -9 5 3 6 10 3 15 -9 13 -12 11 -12 -6z"/>
<path d="M4308 904 c-12 -11 -10 -52 3 -59 14 -10 16 -5 9 33 -3 19 -8 30 -12
26z"/>
<path d="M3828 873 c7 -3 16 -2 19 1 4 3 -2 6 -13 5 -11 0 -14 -3 -6 -6z"/>
<path d="M3970 867 c0 -9 -5 -17 -11 -17 -5 0 -7 -4 -4 -10 3 -5 11 -10 16
-10 6 0 7 5 3 12 -4 7 -3 8 5 4 6 -4 9 -11 6 -16 -3 -4 1 -11 7 -14 14 -7 -18
0 -52 10 -11 4 -20 2 -20 -4 0 -5 10 -12 22 -15 41 -11 11 -18 -33 -8 -51 12
-65 6 -23 -9 16 -6 39 -16 51 -22 19 -9 25 -7 42 13 11 13 20 19 21 13 0 -5
-6 -16 -12 -22 -10 -10 -7 -12 12 -10 31 4 41 17 34 44 -3 12 1 26 10 33 9 8
16 18 16 23 0 6 -7 5 -15 -2 -12 -10 -15 -9 -15 6 -1 18 -1 18 -16 -1 -15 -20
-15 -20 -30 -1 -12 17 -14 18 -14 3z"/>
<path d="M3520 850 c-11 -7 -7 -10 18 -10 17 0 32 5 32 10 0 13 -30 13 -50 0z"/>
<path d="M4366 835 c3 -16 12 -34 20 -38 8 -4 14 -15 14 -22 0 -8 5 -15 10
-15 12 0 13 57 1 64 -5 4 -7 -4 -3 -16 8 -31 -15 -14 -33 25 l-15 32 6 -30z"/>
<path d="M2846 832 c-3 -5 5 -14 19 -20 19 -9 26 -8 37 5 11 15 11 16 -6 10
-10 -4 -24 -3 -31 3 -8 6 -16 7 -19 2z"/>
<path d="M3318 810 c5 -14 7 -31 5 -37 -3 -9 5 -13 24 -12 15 1 21 3 11 6 -9
2 -15 10 -12 17 3 7 -5 21 -16 31 -21 19 -21 19 -12 -5z"/>
<path d="M3418 813 c-11 -3 -18 -14 -18 -29 0 -24 3 -25 55 -23 30 1 55 7 55
12 0 5 -11 7 -25 5 -13 -3 -24 -2 -23 1 2 10 -14 41 -21 40 -3 -1 -14 -3 -23
-6z"/>
<path d="M4058 813 c6 -2 18 -2 25 0 6 3 1 5 -13 5 -14 0 -19 -2 -12 -5z"/>
<path d="M4440 795 c0 -14 5 -25 10 -25 6 0 10 2 10 4 0 2 3 11 6 19 3 8 -2
17 -10 20 -12 5 -16 0 -16 -18z"/>
<path d="M2608 803 c7 -3 16 -2 19 1 4 3 -2 6 -13 5 -11 0 -14 -3 -6 -6z"/>
<path d="M2940 801 c0 -5 6 -11 13 -14 6 -2 -14 -2 -46 0 -32 3 -65 2 -75 -2
-9 -4 -33 -7 -52 -6 -27 1 -31 -1 -20 -8 17 -12 83 -15 93 -4 11 10 56 12 62
2 4 -5 25 -8 48 -8 23 1 34 3 25 6 -10 2 -18 9 -18 14 0 6 5 7 10 4 6 -3 10
-2 10 3 0 10 -23 22 -41 22 -5 0 -9 -4 -9 -9z"/>
<path d="M3050 800 c-12 -8 -10 -10 8 -10 13 0 20 4 17 10 -7 12 -6 12 -25 0z"/>
<path d="M4134 797 c3 -10 6 -23 6 -28 0 -5 5 -9 10 -9 14 0 12 13 -6 36 -14
17 -15 17 -10 1z"/>
<path d="M3510 783 c11 -8 29 -11 45 -7 40 10 29 22 -20 22 -41 -1 -43 -2 -25
-15z"/>
<path d="M4180 782 c0 -18 6 -22 30 -22 24 0 28 3 23 17 -5 12 -8 13 -11 4 -3
-9 -9 -8 -23 5 -18 16 -19 16 -19 -4z"/>
<path d="M2710 780 c-12 -8 -11 -10 8 -10 12 0 22 5 22 10 0 13 -11 13 -30 0z"/>
<path d="M3633 776 c2 -6 16 -12 31 -14 35 -4 26 14 -9 20 -16 4 -24 1 -22 -6z"/>
<path d="M4260 776 c0 -12 10 -16 37 -16 37 0 42 7 7 13 -10 1 -25 6 -31 10
-8 5 -13 3 -13 -7z"/>
<path d="M3038 763 c12 -2 32 -2 45 0 12 2 2 4 -23 4 -25 0 -35 -2 -22 -4z"/>
<path d="M6640 486 c0 -2 8 -10 18 -17 15 -13 16 -12 3 4 -13 16 -21 21 -21
13z"/>
<path d="M6690 403 c0 -13 5 -23 10 -23 13 0 13 11 0 30 -8 12 -10 11 -10 -7z"/>
<path d="M6750 415 c0 -9 19 -27 53 -48 16 -10 26 -21 23 -24 -3 -3 -12 0 -21
7 -13 11 -14 10 -9 -4 5 -12 20 -16 65 -16 l60 0 -28 35 c-15 19 -30 30 -31
25 -2 -6 -8 -7 -14 -4 -6 4 -6 -2 1 -14 7 -14 8 -23 1 -27 -5 -3 -10 1 -10 10
0 9 -4 14 -9 10 -6 -3 -13 1 -18 8 -10 17 -63 52 -63 42z"/>
<path d="M7075 410 c-3 -5 -1 -10 4 -10 6 0 11 5 11 10 0 6 -2 10 -4 10 -3 0
-8 -4 -11 -10z"/>
<path d="M6508 403 c7 -3 16 -2 19 1 4 3 -2 6 -13 5 -11 0 -14 -3 -6 -6z"/>
<path d="M6558 403 c23 -9 12 -23 -19 -23 -17 0 -28 -4 -24 -10 3 -5 1 -10 -4
-10 -6 0 -11 4 -11 10 0 5 -7 7 -15 4 -8 -4 -12 -10 -9 -15 3 -5 0 -9 -5 -9
-6 0 -11 5 -11 10 0 6 -4 10 -10 10 -5 0 -10 -7 -10 -15 0 -8 -9 -15 -19 -15
-10 0 -21 7 -25 15 -3 8 -11 15 -17 15 -8 0 -8 -4 1 -15 15 -18 0 -20 -20 -2
-12 10 -12 9 -1 -6 12 -15 30 -17 137 -16 74 0 122 4 118 10 -3 5 -9 7 -14 4
-5 -3 -19 -1 -30 5 -13 7 -20 7 -20 0 0 -5 -4 -10 -10 -10 -16 0 -11 17 7 24
9 4 21 2 27 -4 13 -13 29 -13 20 1 -4 8 0 8 15 0 11 -7 21 -15 21 -20 0 -4 36
-9 81 -10 78 -2 80 -1 69 18 -6 11 -20 26 -33 32 -21 11 -21 11 2 -15 26 -28
18 -35 -13 -11 -11 8 -31 15 -44 15 -21 0 -22 -2 -12 -15 8 -9 9 -15 2 -15 -6
0 -18 10 -26 22 -9 12 -16 17 -16 11 0 -7 -6 -10 -14 -7 -8 3 -13 11 -10 19 3
7 -2 15 -10 18 -11 4 -13 1 -9 -11 6 -16 5 -16 -14 1 -11 9 -24 17 -29 16 -5
0 -3 -3 4 -6z"/>
<path d="M6950 399 c0 -5 6 -9 13 -9 6 0 12 -11 12 -25 0 -16 -5 -23 -12 -20
-7 2 -13 0 -13 -5 0 -6 9 -10 20 -10 16 0 19 6 18 34 -1 24 -7 36 -20 39 -10
3 -18 1 -18 -4z"/>
<path d="M7010 380 c0 -5 7 -10 16 -10 8 0 12 5 9 10 -3 6 -10 10 -16 10 -5 0
-9 -4 -9 -10z"/>
<path d="M6200 376 c0 -2 7 -9 15 -16 9 -7 15 -8 15 -2 0 5 -7 12 -15 16 -8 3
-15 4 -15 2z"/>
<path d="M6931 348 c0 -16 2 -18 6 -8 3 8 11 18 17 22 7 5 4 8 -6 8 -12 0 -18
-7 -17 -22z"/>
<path d="M7085 360 c3 -5 8 -10 11 -10 2 0 4 5 4 10 0 6 -5 10 -11 10 -5 0 -7
-4 -4 -10z"/>
<path d="M7120 359 c0 -5 5 -7 10 -4 6 3 10 8 10 11 0 2 -4 4 -10 4 -5 0 -10
-5 -10 -11z"/>
<path d="M6279 351 c11 -7 11 -9 0 -14 -8 -3 -4 -4 7 -4 26 1 21 27 -5 27 -13
0 -13 -2 -2 -9z"/>
<path d="M7003 342 c0 -16 39 -12 44 4 2 7 -6 11 -20 10 -13 0 -24 -7 -24 -14z"/>
<path d="M6207 339 c7 -7 15 -10 18 -7 3 3 -2 9 -12 12 -14 6 -15 5 -6 -5z"/>
<path d="M754 168 c-4 -7 -4 -10 1 -6 4 4 14 3 22 -4 11 -8 12 -7 7 6 -7 19
-20 21 -30 4z"/>
<path d="M623 127 c4 -11 -1 -17 -16 -19 l-22 -3 22 -22 c12 -12 19 -24 16
-27 -8 -8 11 -8 30 0 12 4 12 11 2 42 -7 20 -19 38 -26 41 -8 2 -10 -2 -6 -12z
m20 -41 c4 -10 0 -12 -14 -9 -10 3 -16 9 -13 14 8 13 21 11 27 -5z"/>
<path d="M675 120 c3 -5 11 -10 16 -10 6 0 7 5 4 10 -3 6 -11 10 -16 10 -6 0
-7 -4 -4 -10z"/>
<path d="M718 123 c7 -3 16 -2 19 1 4 3 -2 6 -13 5 -11 0 -14 -3 -6 -6z"/>
<path d="M573 88 c4 -12 1 -18 -8 -18 -8 0 -15 5 -15 10 0 6 -8 10 -17 10 -11
0 -14 -3 -7 -8 6 -4 13 -15 17 -25 6 -15 4 -16 -13 -7 -28 15 -70 13 -70 -4 0
-8 5 -18 10 -21 6 -4 8 -10 6 -14 -3 -3 17 -8 42 -9 29 -1 42 2 33 7 -8 5 -9
11 -3 15 5 3 12 -1 16 -9 3 -8 15 -15 26 -15 18 0 19 3 10 20 -6 11 -15 18
-19 16 -4 -3 -8 1 -8 9 0 21 4 19 32 -12 13 -16 25 -22 25 -15 0 6 -4 12 -10
12 -5 0 -10 5 -10 11 0 6 -10 23 -22 37 -12 15 -18 19 -15 10z m-48 -47 c6 -1
2 -6 -9 -12 -14 -9 -22 -8 -33 3 -15 15 -16 15 42 9z"/>
<path d="M676 75 c4 -8 10 -15 15 -15 4 0 6 7 3 15 -4 8 -10 15 -15 15 -4 0
-6 -7 -3 -15z"/>
<path d="M360 15 c0 -8 7 -15 16 -15 14 0 14 3 4 15 -7 8 -14 15 -16 15 -2 0
-4 -7 -4 -15z"/>
<path d="M400 21 c0 -5 7 -12 16 -15 22 -9 24 -8 18 9 -7 16 -34 21 -34 6z"/>
</g>
</svg>
